<?xml version="1.0" encoding="utf-8"?>
<!-- Generator: Adobe Illustrator 20.0.0, SVG Export Plug-In . SVG Version: 6.00 Build 0)  -->
<svg version="1.1" id="Laag_1" xmlns="http://www.w3.org/2000/svg" xmlns:xlink="http://www.w3.org/1999/xlink" x="0px" y="0px"
	 viewBox="0 0 1080 1080" style="enable-background:new 0 0 1080 1080;" xml:space="preserve">
<style type="text/css">
	.st0{fill:#FFFFFF;}
</style>
<g id="Laag_1_1_">
</g>
<g id="Laag_2">
	<g>
		<g>
			<path class="st0" d="M727.4,88.5C803.2,120,870.5,170.6,922,234.9c36.8,46,64.8,97.5,83,153.4c3.6,10.8,6.7,21.8,9.5,32.9
				c4.8,19.4,8.6,39,10.9,58.8l11.9,11.9c0.2,0.2,0.2,0.2,0.3,0.3c0.2,0.2,0.2,0.2,0.3,0.3c-2.3-25-6.6-49.6-12.6-74
				c-2.8-11.4-6.1-22.6-9.7-33.7C996.9,327.7,968.4,275,930.7,228c-52.6-65.7-121.4-117.5-199-149.7c-46-19-94.1-31.1-143.4-35.7
				l12.3,12.3C644.2,60.2,686.6,71.5,727.4,88.5z"/>
			<path class="st0" d="M54.3,480.1c6.2-50.9,20.4-100.2,42.3-146.9c27.6-59.2,66.3-111.4,114.9-155.3c23.9-21.7,50.1-41,77.9-57.7
				l3.7-2.2c0.6-0.3,1.1-0.6,1.7-0.9c56.8-32.9,119.7-54,184.6-62l12.3-12.3c-71.2,6.9-140.3,28.9-202.3,64.8
				c-0.6,0.3-1.4,0.8-2,1.1l-3.7,2.2c-28.4,17-55.1,36.8-79.6,59c-49.6,44.9-89.1,98.3-117.4,158.9c-24.3,52-39.3,107.1-44.8,163.9
				c0.2-0.2,0.3-0.5,0.5-0.6L54.3,480.1z"/>
			<path class="st0" d="M480.9,1026.6c-119.1-14.5-229.6-72.4-309.5-163.9c-0.6-0.6-1.1-1.2-1.7-1.9
				c-38.9-44.8-68.8-95.7-89.3-151.2c-1.6-4.1-3-8.3-4.2-12.2C70,679.1,64.9,660.2,61,641.1c-0.5-1.4-0.8-2.8-0.9-4.2l-2.3-13.1
				c-0.8-4.7-1.6-9.4-2.2-14c-0.5-3.4-0.9-6.7-1.2-10.1l-11.7-11.7c-0.2-0.2-0.2-0.2-0.3-0.3c-0.2-0.2-0.3-0.3-0.3-0.5
				c0.8,8.1,1.7,16.1,2.8,24c0.6,4.7,1.4,9.5,2.2,14.4c0,0,0.5,2.7,2.3,13.1c0.3,1.6,0.6,3.3,1.1,4.8c4.1,19.2,9.2,38.5,15.6,57.1
				c1.4,4.1,2.8,8.3,4.4,12.5c20.8,56.7,51.5,108.6,91.1,154.5c0.6,0.8,1.2,1.4,1.9,2.2c84.7,96.9,203.2,157,330.2,168.9
				c-0.6-0.5-1.1-0.9-1.6-1.4L480.9,1026.6z"/>
			<path class="st0" d="M1025.8,599.8c-3,25.1-8,49.8-14.7,73.8c-3.4,12-7.3,24-11.5,35.7c-2.3,6.4-4.8,13-7.8,19.8
				c0,0-0.2,0.5-0.3,0.6c-1.1,2.5-2,4.8-3.1,7.2c-2.7,6.1-5.5,12.3-8.6,18.4c0,0-0.5,1.1-0.6,1.1c-10.1,20.4-21.7,40.4-34.5,59.2
				c-56.8,83.5-136.6,146.7-230.8,182.6l-2.7,1.1c-0.5,0.2-0.8,0.3-1.2,0.5c-6.9,2.5-13.6,4.8-20.3,7c-29.7,9.5-60.1,16.2-91,19.8
				l-10.9,10.9c-0.2,0.2-0.2,0.2-0.3,0.3c-0.5,0.5-0.8,0.8-1.2,1.1c36.4-3.3,72.1-10.6,106.9-21.8c6.7-2.2,13.6-4.5,20.6-7.2
				c0.5-0.2,0.9-0.3,1.6-0.5l2.7-1.1c96.3-36.7,177.8-101.1,236-186.7c13.1-19.2,25-39.5,35.3-60.4l0.6-1.1
				c3.1-6.2,5.9-12.6,8.7-18.9c1.1-2.5,2.2-4.8,3.1-7.3l0.3-0.6c3-7,5.6-13.6,8-20.3c4.4-11.9,8.4-24.2,11.9-36.5
				c8.1-29,13.7-59,16.5-89.3c-0.2,0.3-0.5,0.5-0.6,0.8L1025.8,599.8z"/>
			<path class="st0" d="M976.6,590.1c-2.7,23.7-7.2,47.1-13.6,69.9c-3,10.8-6.6,21.5-10.3,32c-2.2,5.9-4.5,11.9-7,17.9l-0.3,0.6
				c-0.9,2-1.7,4.2-2.7,6.2c-2.3,5.5-5,11.1-7.6,16.5l-0.5,0.9c-9.1,18.4-19.5,36.2-30.9,53.1c-51,75.1-122.7,131.7-207.3,164
				l-0.8,0.3l0,0c-7.2,2.7-14.2,5.2-20.9,7.3c-27.3,8.7-55.4,14.8-84,18.1l9.8,9.8c26.4-3.6,52.3-9.4,77.6-17.5
				c6.4-2,13-4.4,19.5-6.9l0,0l2.7-1.1c86.6-33.1,160.1-91.1,212.4-168.1c11.7-17.2,22.3-35.6,31.7-54.5l0.5-0.9
				c2.8-5.6,5.5-11.4,8-17c0.9-2.2,1.9-4.4,2.8-6.6l0.2-0.5c2.7-6.4,5-12.3,7.2-18.4c3.9-10.6,7.5-21.7,10.6-32.8
				c5.8-20.6,10.1-41.7,13-63.1L976.6,590.1z"/>
			<path class="st0" d="M103.3,490.1c5.3-47,18.3-92.5,38.4-135.6c24.8-53.1,59.6-100,103.2-139.5c21.5-19.5,44.9-37,69.9-51.8
				l1.1-0.6l0,0c53.4-31.7,113-51.5,174.5-58.5l-9.8-9.8c-59.2,7.8-116.1,27.3-167.6,57.3l0,0l-3.7,2.2
				c-25.6,15.3-49.6,33.1-71.6,53.1c-44.6,40.4-80.2,88.6-105.8,143c-19.5,41.5-32.3,85.2-38.2,130.5L103.3,490.1z"/>
			<path class="st0" d="M489.4,977.3c-108.2-12.5-208.5-64.9-280.9-148.1c-0.2-0.2-0.3-0.3-0.5-0.6c-35.1-40.4-62.3-86.3-80.5-136.2
				c-1.4-3.7-2.7-7.3-3.9-10.9c-6.9-20.3-12.2-41.2-16.1-62.3l0,0l-0.6-3.9c-0.8-4.1-1.4-8.3-1.9-12.5c-0.6-4.2-1.1-8.6-1.6-12.8
				l-9.8,9.8c0.2,1.6,0.3,3,0.6,4.5c0.6,4.2,1.2,8.6,2,12.8l2.3,13h0.2c3.7,18.4,8.6,36.8,14.7,54.8c1.2,3.6,2.5,7.3,3.9,11.1
				c18.9,51.2,46.5,98.2,82.4,139.5c0.3,0.3,0.6,0.6,0.9,0.9c72.3,82.9,171.7,135.9,279.2,150.5L489.4,977.3z"/>
			<path class="st0" d="M589.4,103.9c40.9,4.5,80.7,14.8,118.9,30.6c68,28.2,128.6,73.7,174.8,131.6c33.1,41.2,58.2,87.6,74.6,137.8
				c3.1,9.7,6.1,19.7,8.6,29.7c4.7,18.6,8.1,37.5,10.3,56.7l9.8-9.8c-2.2-16.7-5.5-33.2-9.5-49.5c-2.5-10.1-5.5-20.4-8.7-30.3
				c-16.9-51.3-42.6-98.8-76.5-141.1c-47.4-59.2-109.4-105.8-179.2-134.8c-36.5-15.1-74.4-25.3-113.3-30.4L589.4,103.9z"/>
			<path class="st0" d="M399.6,592.8c16.1,2.8,24.3,8.3,28.4,11.9c0.9,0.9,2.5,0.2,2.5-1.2c-0.6-6.6,1.2-11.2,2.5-13.6
				c0.6-1.1,0.3-2.5-0.8-3.3c-9.7-6.1-24.5-9.4-32.2,1.6c-0.5,0.8-0.9,1.6-1.4,2C397.9,591.3,398.5,592.6,399.6,592.8z"/>
			<path class="st0" d="M507.2,727.1c-63.7-27.2-52-98.5-49-112.2c0.2-0.9-0.8-1.6-1.6-1.2c-4.7,2.3-8.3,2.7-10.3,2.7
				c-1.1,0-2.2,0.8-2.3,2c-14.7,74.1,35.1,101,62.9,110.2C507.5,728.8,507.9,727.6,507.2,727.1z"/>
			<path class="st0" d="M470.6,586c0.3,0.8,1.2,0.8,1.7,0.2c7.5-9.8,17.2-14.2,21.4-15.8c0.8-0.3,0.9-1.4,0.2-1.9
				c-16.5-10-34.5-7-40.7-5.5c-0.9,0.2-1.1,1.4-0.3,1.9C463,571.7,468.8,582.1,470.6,586z"/>
			<path class="st0" d="M524,720.4c-4.4-2.5-8.3-5.5-11.9-8.4c-25.1-21.2-35.1-55.7-25.4-87.1c3.3-10.8,7.8-16.9,9.7-19
				c0.5-0.5,0.3-1.2-0.2-1.6c-6.6-4.8-8.4-13.1-8.9-17c-0.2-0.9-1.2-1.2-1.9-0.8c-19.4,17.2-20.9,46.5-19.7,64.8
				c1.1,15.1,6.1,29.8,15.1,41.8c14.5,19.2,33.6,26.2,42.5,28.4C524.3,722,524.8,720.7,524,720.4z"/>
			<path class="st0" d="M424.8,564.5c-14.7-2-30.3-1.1-43.2,5.9c-11.1,5.9-18.3,16.2-22.2,28.2c-0.2,0.6,0.5,1.1,1.1,0.9
				c3-1.4,5-3,8.3-4.4c0.8-0.3,1.7-0.8,2.3-1.2c0.9-0.6,1.6-1.6,2.2-2.5c9.4-13.4,16.7-16.2,28.6-18.1c15-2.5,32.8,2.7,43.2,13.7
				c0.6,0.8,1.2,1.6,1.7,2.3c0.3,0.3,0.5,0.8,0.5,1.1c0.2,1.2-1.4,2-2.7,2.5c-2.2,1.1-4.1,3-4.7,5.3s0,5,1.7,6.7
				c1.1,1.1,2.7,1.6,4.2,1.9c5.3,0.8,10.9-2.5,13.4-7.5c5.6-11.5-5.8-24.5-15.3-29.5C438,567,431.3,565.4,424.8,564.5z"/>
			<path class="st0" d="M593.8,659.1c0-2.8-2.2-5-5-5c-2.8,0-5,2.2-5,5c0,2.7,2.2,5,5,5C591.6,664.1,593.8,661.7,593.8,659.1z"/>
			<path class="st0" d="M546.3,578.4c5.9-0.2,23.4,0.8,36.8,15c0.3,0.3,0.6,0.2,0.6-0.3c0.3-5.6-0.2-35.1-39.8-32
				c-0.6,0-0.9,0.6-0.8,1.1c0.6,2.2,2,7.8,1.2,14C544.5,577.5,545.3,578.4,546.3,578.4z"/>
			<circle class="st0" cx="336" cy="544.8" r="6.2"/>
			<path class="st0" d="M486.7,500.7c0,5,4.1,9.1,9.1,9.1c5,0,9.2-4.1,9.2-9.1s-4.1-9.1-9.2-9.1
				C490.6,491.6,486.7,495.7,486.7,500.7z"/>
			<path class="st0" d="M507,338.2c-0.5-1.4-2.5-1.6-3.3-0.3c-22.9,40.1-45.6,70.7-52.9,80.4c-0.6,0.9,0.3,2.3,1.4,1.7
				c27.9-17.2,47-41.2,54.5-53.2c2.2-3.4,3.1-7.5,3-11.5C509.2,346.3,508.1,341.2,507,338.2z"/>
			<path class="st0" d="M483.6,730.4c-52.3-30.9-53.1-75.2-52.4-86c0-0.9-0.9-1.4-1.7-0.9c-4.5,3-10.3,3.6-12.6,3.7
				c-0.6,0-1.1,0.6-1.1,1.2c6.6,56.3,47.9,77.3,67,84C483.9,732.9,484.7,731.2,483.6,730.4z"/>
			<path class="st0" d="M698.5,147.3c-16.2,19.2-26.1,43.9-26.1,71c0,60.6,49.2,109.7,109.7,109.7c38.1,0,71.6-19.5,91.3-49
				C863,265.8,851.8,253,839.6,241C798.7,199.9,750.8,168.4,698.5,147.3z"/>
			<path class="st0" d="M368.1,647.5c-7,10.8-5.8,27-3.9,37c0.9,5.8,2.8,11.2,5.5,16.4c16.9,32.6,52.1,44.2,67.6,47.8
				c0.9,0.2,1.2-1.1,0.5-1.4c-66-28.2-68.5-87.7-68.4-99.3C369.2,647.2,368.4,647.1,368.1,647.5z"/>
			<path class="st0" d="M412.4,219.9c0,0-9.4-17.2-32.3-8.9c0,0-12-24.5-44.2-15.6c0,0-1.2-11.2-9.8-20.9
				c-27.2,15.9-52.8,35.1-76.2,57.1h186.5C436.3,231.6,431.2,218.3,412.4,219.9z"/>
			<path class="st0" d="M125.4,614.6c0.3,0,0.6,0,0.9,0.2c0.8,0.2,1.6,0.2,2.3,0.3c0.3,0,0.6,0,0.8,0.2c0.9,0.2,2,0.3,3,0.5
				c0.2,0,0.2,0,0.3,0c0.9,0.2,1.9,0.3,2.8,0.6c0.3,0,0.6,0.2,0.9,0.2c0.8,0.2,1.6,0.3,2.3,0.6c0.3,0,0.5,0.2,0.8,0.2
				c0.9,0.3,2,0.5,3,0.8c0.2,0,0.3,0.2,0.5,0.2c0.9,0.3,1.7,0.5,2.5,0.8c0.3,0.2,0.6,0.2,0.9,0.3c0.8,0.3,1.6,0.5,2.3,0.8
				c0.3,0.2,0.5,0.2,0.8,0.3c0.9,0.3,2,0.6,3,1.1c0.2,0,0.5,0.2,0.6,0.2c0.8,0.3,1.6,0.6,2.3,0.9c0.3,0.2,0.6,0.2,0.9,0.3
				c0.8,0.3,1.6,0.6,2.3,0.9c0.2,0.2,0.5,0.2,0.6,0.3c0.9,0.5,1.9,0.8,2.8,1.2c0.2,0.2,0.5,0.2,0.6,0.3c0.8,0.3,1.4,0.6,2.2,0.9
				c0.3,0.2,0.6,0.3,0.8,0.3c0.8,0.3,1.6,0.6,2.2,1.1c0.2,0,0.3,0.2,0.5,0.2c0.9,0.5,1.7,0.8,2.7,1.2c0.2,0.2,0.5,0.2,0.6,0.3
				c0.6,0.3,1.2,0.6,2,0.9c0.3,0.2,0.5,0.3,0.8,0.3c0.8,0.3,1.4,0.8,2.2,1.1c0.2,0,0.2,0.2,0.3,0.2c0.8,0.5,1.6,0.8,2.3,1.2
				c0.2,0.2,0.5,0.2,0.6,0.3c0.6,0.3,1.1,0.6,1.7,0.9c0.2,0.2,0.5,0.2,0.6,0.3c0.6,0.5,1.4,0.8,2,1.1c0,0,0,0,0.2,0
				c0.6,0.5,1.4,0.8,2,1.2c0.2,0.2,0.3,0.2,0.6,0.3c0.5,0.3,0.9,0.6,1.4,0.8c0.2,0.2,0.3,0.2,0.5,0.3c0.6,0.3,1.1,0.8,1.7,1.1l0,0
				c0.5,0.3,0.8,0.5,1.2,0.8c1.2,0.8,2.5-0.8,1.6-1.9c-0.2-0.2-0.2-0.2-0.3-0.3c-0.5-0.5-0.9-0.9-1.4-1.4c-0.6-0.6-1.2-1.2-1.9-1.9
				c-0.5-0.5-0.9-0.9-1.4-1.4c-0.6-0.6-1.2-1.2-1.9-1.7c-0.5-0.5-0.9-0.9-1.4-1.4c-0.6-0.6-1.2-1.1-1.9-1.6
				c-0.5-0.5-0.9-0.8-1.4-1.2c-0.6-0.5-1.2-1.1-1.7-1.6c-0.5-0.5-0.9-0.8-1.6-1.2c-0.6-0.5-1.2-0.9-1.7-1.4
				c-0.5-0.5-0.9-0.8-1.6-1.1c-0.6-0.5-1.2-0.9-1.7-1.4c-0.5-0.3-0.9-0.8-1.4-1.1c-0.6-0.5-1.2-0.8-1.7-1.2
				c-0.5-0.3-0.9-0.6-1.4-0.9c-0.6-0.5-1.2-0.8-1.7-1.2c-0.5-0.3-0.9-0.6-1.4-0.9c-0.6-0.3-1.2-0.8-1.7-1.1
				c-0.5-0.3-0.9-0.6-1.4-0.9c-0.6-0.3-1.2-0.8-1.7-1.1c-0.5-0.3-0.9-0.5-1.4-0.8c-0.6-0.3-1.2-0.6-1.9-0.9
				c-0.5-0.3-0.8-0.5-1.2-0.8c-0.6-0.3-1.2-0.6-1.9-0.9c-0.3-0.2-0.8-0.5-1.1-0.6c-0.8-0.3-1.4-0.8-2.2-1.1
				c-0.3-0.2-0.5-0.3-0.8-0.5c-0.9-0.5-1.9-0.9-2.8-1.4c-0.2-0.2-0.3-0.2-0.5-0.2c-0.8-0.3-1.6-0.6-2.3-0.9
				c-0.3-0.2-0.6-0.3-0.9-0.5c-0.6-0.3-1.1-0.5-1.7-0.8c-0.3-0.2-0.8-0.3-1.1-0.5c-0.5-0.2-0.9-0.5-1.6-0.6
				c-0.3-0.2-0.8-0.3-1.1-0.5c-0.5-0.2-0.9-0.3-1.4-0.5c-0.3-0.2-0.8-0.3-1.1-0.3c-0.5-0.2-0.9-0.3-1.2-0.5
				c-0.3-0.2-0.6-0.2-0.9-0.3c-0.5-0.2-0.8-0.3-1.2-0.5c-0.3-0.2-0.6-0.2-0.9-0.3c-0.3-0.2-0.8-0.3-1.1-0.3
				c-0.3-0.2-0.6-0.2-0.9-0.3c-0.3-0.2-0.6-0.2-1.1-0.3c-0.3-0.2-0.5-0.2-0.8-0.2c-0.3-0.2-0.6-0.2-0.9-0.3c-0.3,0-0.5-0.2-0.8-0.2
				c-0.3,0-0.6-0.2-0.8-0.2c-0.2,0-0.5-0.2-0.6-0.2c-0.3,0-0.5-0.2-0.8-0.2c-0.2,0-0.3-0.2-0.6-0.2c-0.2,0-0.5-0.2-0.6-0.2
				c-0.2,0-0.3,0-0.5-0.2c-0.2,0-0.3-0.2-0.6-0.2c-0.2,0-0.3,0-0.3,0c-0.2,0-0.3,0-0.5-0.2c-0.2,0-0.2,0-0.3,0s-0.2,0-0.3,0h-0.2
				c-0.2,0-0.2,0-0.2,0c0.8,5.9,1.7,11.7,2.7,17.5C123.4,614.3,124.3,614.4,125.4,614.6z"/>
			<path class="st0" d="M853.8,420.6c-17.9,0-22.6,8.3-23.9,12.2c-0.3,0.9,0.3,1.9,1.4,1.9h119.4c-4.1-16.1-9.2-31.7-15.1-47.1l0,0
				c-4.1-4.2-9.4-7-16.1-8c-11.5-1.7-22.5,1.9-30.7,10.1c-0.3,0.3-3.6,5.9-4.4,8.4c-0.2,0.6-0.8,0.9-1.4,0.9
				c-22.9-1.7-27,15.6-27.6,20.4C855,420,854.4,420.6,853.8,420.6z"/>
			<path class="st0" d="M345.3,446.2c-13.1,14-34,33.7-41.5,40.6c-0.8,0.6,0,1.9,0.9,1.7c15-3.7,25.3-8.7,30.6-11.7
				c2.7-1.6,4.8-3.9,6.1-6.9c5.2-12.6,6.4-19.4,6.4-22.8C347.8,445.9,346.3,445.3,345.3,446.2z"/>
			<path class="st0" d="M224.8,318.1c-0.2,0.3-3.3,5.3-3.9,7.5c-0.2,0.5-0.6,0.9-1.2,0.8c-20.4-1.6-24,13.9-24.7,18.3
				c-0.2,0.6-0.6,1.1-1.2,1.1c-16.1,0-20.3,7.5-21.4,10.9c-0.3,0.8,0.3,1.7,1.2,1.7h147.8c0.9,0,1.6-1.1,1.1-1.9
				c-2-3.6-6.7-10.8-22.6-10.6c-0.5,0-0.9-0.3-1.2-0.8c-3.9-8.7-13.1-13.3-22.2-13.9c-0.5,0-0.9,0-1.2-0.3c-0.5-0.3-0.8-0.9-0.9-1.6
				c-3.6-10.8-10.5-18.6-22-20.3C241.9,307.5,232.2,310.7,224.8,318.1z"/>
			<path class="st0" d="M373.3,551.1c-0.3,0.5-0.6,0.8-1.1,0.9c-5.8,2.5-47.8,22.8-44.6,74.3c0.2,2.2,3,3,4.2,1.2
				c3.7-5.3,9.7-13.4,15.3-17.9c0.5-0.5,0.8-1.1,0.9-1.7c0.2-6.4,3.1-41.2,42.8-51.5c0,0,20.3-6.1,43.7,1.2c0.6,0.2,1.2,0.2,1.9-0.2
				c3.4-1.9,17.9-8.6,47.1-3.4c27.8,5,28.9,21.8,28.4,27.6c-0.2,1.1-0.9,2-2,2.2c-1.6,0.2-3.4,0.3-3.7,0.5c-3.4,0.9-7,4.2-6.7,8.1
				c0.6,6.7,8.9,7.5,14,7c8-0.6,14.4-5,18.4-11.9c10.5-17.9-1.1-37.9-22.5-38.5c-1.2,0-2.2-0.9-2.2-2.2c-0.2-2.5-0.9-6.1-0.9-6.4
				c-4.2-11.9-22.9-13.6-32.6-6.7c-1.1,0.8-2.7,0.5-3.3-0.8c-2.7-4.5-9.8-13.4-25.8-13.1c-16.5,0.3-23.1,9.1-25.3,13
				c-0.5,0.9-1.6,1.4-2.7,1.1C409.8,532,387.2,527.7,373.3,551.1z"/>
			<path class="st0" d="M554.8,684.4c20.8,11.7,44.9,7.3,54.8,4.8c0.6-0.2,0.6-1.2-0.2-1.2c-9.8-0.2-33.7-1.7-49.6-14
				c-20.6-15.9-10.6-45.4-10.6-45.4c-11.4-25,5.3-35.9,9.4-38.2c0.5-0.3,0.5-0.9,0-1.2c-5.8-2.7-12.2-2.7-14.5-2.5
				c-0.5,0-0.9,0.5-1.2,0.9c-9.2,22.9-27.3,23.4-33.2,22.8c-1.2-0.2-2.3,0.5-3,1.6c-3,5.5-5.6,10.9-7.5,16.7
				c-9.7,29.5,0.2,69.5,29.8,83.3c9.4,4.4,19.8,6.2,30.3,6.1c0.8,0,0.9-1.1,0.2-1.2c-14.7-3.4-27.9-12-37.3-23.7
				c-10.5-13-15.5-29.7-12.5-46c0.8-4.2,2-8.4,3.6-12.3c0.8-1.7,1.7-3.4,2.7-5.2c0.6-1.1,2.2-0.5,2,0.8c-1.1,8.4-2.3,16.2-1.6,24.8
				c0.9,9.8,3.6,19.5,8.6,28.1c12,20.6,40.4,22.3,52.1,22.2c0.5,0,0.5-0.6,0-0.8c-6.9-1.2-19.7-5.2-34.2-18.3
				c-16.2-14.7-12.8-34-10.1-42.6c0.2-0.6,1.1-0.5,1.1,0.2C533.2,652.7,534.5,673,554.8,684.4z"/>
			<path class="st0" d="M394.8,666.3c12.5,40.9,44.3,57.3,59,62.7c0.8,0.3,1.2-0.6,0.5-1.1c-44.2-24-48.5-73.2-48.8-82.1
				c0-0.8-0.5-1.6-1.2-2c-8.6-4.5-8-12.2-7.2-15.1c0.2-0.8-0.5-1.4-1.2-1.4c-4.2,0-7.5,1.1-10,2.7c-5.2,3.1-7.8,8.7-7.6,14.5
				c1.2,30.1,9.4,62.1,37,80.7c8.1,5.5,35,17.5,26.8,12.2c-50.7-32.9-48.4-70.9-48.4-70.9C393.4,665.8,394.6,665.6,394.8,666.3z"/>
			<path class="st0" d="M560.1,522.1c-0.6,0-1.2,0-1.9-0.3c-4.7-2.3-28.2-13.1-49.6,2c-1.1,0.8-1.2,2.2-0.3,3.1
				c2,2.2,5.5,6.7,7,12.8c0.2,0.6,0.6,1.1,1.2,1.2c3.1,0.6,13.4,3.3,20.1,10.6c0.8,0.8,1.7,1.1,2.8,0.9c7.2-1.4,35-5,49.3,18.1
				c15.1,24,0.3,42.5-12.6,43.1c-2.7,0.2-4.4-3.1-2.7-5.2c0.8-0.9,1.9-2,3.4-3.3c3.6-3-3.9-6.2-6.1-6.7c-9.8-2.5-15.1,5.9-14.8,14.7
				c0.5,10.3,7.6,18.9,17.6,21.5c3.1,0.8,6.4,1.1,9.7,1.1c25.4-0.6,26.2-27,26.1-33.7c0-0.9,0.3-1.9,1.1-2.7
				c3.9-4.1,16.2-19-3.6-37.8c-0.8-0.6-1.1-1.6-1.1-2.5C605.6,551.5,603.8,517.5,560.1,522.1z"/>
			<path class="st0" d="M417.6,510.8c0-2.8-2.2-5-5-5c-2.8,0-5,2.2-5,5c0,2.7,2.2,5,5,5C415.4,515.8,417.6,513.5,417.6,510.8z"/>
			<path class="st0" d="M275.4,872L275.4,872c35.4,24.2,78.7,51.3,111.7,64.5h0.2c2.7,0.9,5.3,2,7.8,3c0.3,0.2,0.6,0.3,0.9,0.3
				c44,15.6,83.7,16.9,103.8,16.2c1.2,0,1.2-1.9,0-1.9c-126.1-10.6-201.6-76.3-254.1-135.3c-48.8-54.9-67.7-66.3-76.8-72.1
				c18.9,34,42.8,65.5,71,94C251.4,851.7,263.2,862.1,275.4,872z"/>
			<path class="st0" d="M657.3,647.4c-1.1,0.6-2,1.4-3.1,2c-0.3,0.2-0.5,0.3-0.8,0.5c-0.9,0.6-1.9,1.1-2.8,1.7
				c-0.2,0-0.2,0.2-0.3,0.2c-0.9,0.6-2,1.2-3,1.7c-0.3,0.2-0.5,0.3-0.8,0.5c-0.8,0.5-1.7,0.9-2.5,1.4c-0.2,0.2-0.3,0.2-0.5,0.3
				c-0.9,0.5-1.9,1.1-2.8,1.6c-0.2,0.2-0.5,0.3-0.6,0.3c-0.8,0.5-1.6,0.8-2.3,1.2c-0.2,0.2-0.3,0.2-0.5,0.3
				c-0.9,0.5-1.7,0.9-2.5,1.2c-0.2,0.2-0.5,0.2-0.6,0.3c-0.8,0.3-1.4,0.6-2,1.1c-0.2,0-0.3,0.2-0.5,0.2c-0.8,0.3-1.6,0.8-2.3,1.1
				c-0.2,0.2-0.3,0.2-0.5,0.2c-0.6,0.3-1.2,0.6-1.9,0.9c-0.2,0-0.3,0.2-0.5,0.2c-0.6,0.3-1.4,0.6-2,0.9c-0.2,0-0.3,0.2-0.5,0.2
				c-0.5,0.3-1.1,0.5-1.6,0.6c-0.2,0-0.3,0.2-0.3,0.2c-0.6,0.3-1.1,0.5-1.7,0.6c-0.2,0-0.2,0.2-0.3,0.2c-0.5,0.2-0.8,0.3-1.2,0.5
				h-0.2c-0.9,0.3-0.6,1.7,0.3,1.7c0.2,0,0.3,0,0.6,0c0.5,0,0.8,0,1.2,0c0.5,0,0.9,0,1.6-0.2c0.5,0,0.8,0,1.2-0.2
				c0.5,0,0.9-0.2,1.4-0.2c0.5,0,0.8-0.2,1.2-0.2s0.9-0.2,1.4-0.2c0.5,0,0.8-0.2,1.2-0.2c0.5-0.2,0.9-0.2,1.4-0.3
				c0.5-0.2,0.8-0.2,1.2-0.3c0.5-0.2,0.9-0.2,1.4-0.3c0.5-0.2,0.8-0.2,1.2-0.3c0.5-0.2,0.9-0.3,1.4-0.3c0.3-0.2,0.8-0.2,1.1-0.3
				c0.5-0.2,0.9-0.3,1.4-0.5c0.3-0.2,0.8-0.2,1.1-0.3c0.5-0.2,0.9-0.3,1.4-0.5c0.3-0.2,0.8-0.3,1.1-0.3c0.5-0.2,0.9-0.3,1.4-0.5
				c0.3-0.2,0.6-0.3,1.1-0.5c0.5-0.2,0.9-0.5,1.4-0.6c0.3-0.2,0.6-0.3,0.9-0.5c0.6-0.3,1.1-0.5,1.7-0.8c0.3-0.2,0.5-0.2,0.8-0.3
				c0.8-0.3,1.6-0.8,2.3-1.1c0.2,0,0.3-0.2,0.5-0.3c0.6-0.3,1.2-0.6,1.9-0.9c0.3-0.2,0.6-0.3,0.8-0.5c0.5-0.3,0.9-0.5,1.4-0.8
				c0.3-0.2,0.6-0.3,0.9-0.5c0.5-0.3,0.9-0.5,1.4-0.8c0.3-0.2,0.6-0.3,0.9-0.6c0.5-0.3,0.8-0.5,1.2-0.8c0.3-0.2,0.6-0.5,0.9-0.6
				c0.5-0.3,0.8-0.5,1.2-0.8c0.3-0.2,0.6-0.5,0.9-0.6c0.5-0.3,0.8-0.5,1.2-0.8c0.3-0.2,0.6-0.5,0.9-0.6c0.5-0.3,0.8-0.5,1.2-0.8
				c0.3-0.2,0.6-0.5,0.9-0.6c0.3-0.3,0.8-0.5,1.1-0.8c0.3-0.2,0.6-0.5,0.9-0.6c0.3-0.3,0.8-0.5,1.1-0.8c0.3-0.2,0.6-0.5,0.9-0.8
				c0.3-0.3,0.8-0.6,1.1-0.8c0.3-0.3,0.6-0.5,0.9-0.8c0.3-0.3,0.8-0.6,1.1-0.8c0.3-0.3,0.6-0.5,0.9-0.8c0.3-0.3,0.8-0.6,1.1-0.8
				c0.3-0.3,0.6-0.5,0.9-0.8c0.3-0.3,0.8-0.5,1.1-0.8c0.3-0.3,0.6-0.5,0.9-0.8c0.3-0.3,0.8-0.6,1.1-0.8c0.3-0.3,0.6-0.5,0.9-0.8
				c0.6-0.5,1.2-0.9,1.7-1.4c0.5-0.3,0.8-0.6,1.2-0.9c0.3-0.2,0.6-0.5,0.9-0.6c0.5-0.3,0.9-0.6,1.2-0.9c0.3-0.2,0.5-0.3,0.8-0.5
				c0.6-0.5,1.4-0.9,2-1.6c1.2-0.9,2.3-1.7,3.6-2.7c0.3-0.3,0.8-0.5,1.1-0.8c0.8-0.6,1.6-1.1,2.3-1.7c0.5-0.3,0.8-0.5,1.2-0.8
				c0.8-0.5,1.6-1.1,2.2-1.6c0.3-0.2,0.8-0.5,1.1-0.6c0.9-0.6,1.9-1.2,2.7-1.7c0.2-0.2,0.3-0.2,0.3-0.3c0.9-0.6,2-1.2,3-1.9
				c0.3-0.2,0.6-0.3,0.9-0.5c0.6-0.5,1.4-0.8,2-1.2c0.3-0.2,0.6-0.3,0.9-0.6c0.6-0.3,1.2-0.8,1.9-1.1c0.3-0.2,0.6-0.3,0.9-0.5
				c0.8-0.3,1.4-0.8,2-1.1c0.2-0.2,0.3-0.2,0.5-0.3c0.8-0.5,1.6-0.8,2.3-1.2c0.2-0.2,0.5-0.2,0.6-0.3c0.6-0.3,1.1-0.5,1.7-0.8
				c0.3-0.2,0.5-0.3,0.8-0.3c0.5-0.2,0.9-0.5,1.4-0.6c0.3-0.2,0.5-0.2,0.8-0.3c0.5-0.2,1.1-0.5,1.6-0.6c0.2,0,0.3-0.2,0.5-0.2
				c0.6-0.3,1.2-0.5,1.9-0.8c0.2,0,0.3-0.2,0.5-0.2c0.5-0.2,0.9-0.3,1.2-0.5c0.2,0,0.3-0.2,0.6-0.2c0.3-0.2,0.8-0.3,1.1-0.3
				c0.2,0,0.3-0.2,0.5-0.2c0.3-0.2,0.8-0.2,1.1-0.3c0.2,0,0.2,0,0.3-0.2c0.9-0.3,0.8-1.7-0.2-1.7c-0.2,0-0.5,0-0.6,0
				c-0.5,0-0.8,0-1.1,0c-0.5,0-0.9,0-1.6,0.2c-0.3,0-0.8,0-1.1,0.2c-0.5,0-0.9,0.2-1.4,0.2c-0.3,0-0.8,0.2-1.1,0.2
				c-0.5,0-0.9,0.2-1.4,0.2c-0.3,0-0.8,0.2-1.1,0.2c-0.5,0.2-0.9,0.2-1.6,0.3c-0.3,0-0.6,0.2-0.9,0.2c-0.5,0.2-1.1,0.2-1.6,0.3
				c-0.3,0-0.6,0.2-0.9,0.2c-0.6,0.2-1.2,0.3-2,0.5c-0.2,0-0.3,0-0.5,0.2c-0.8,0.2-1.6,0.5-2.3,0.8c-0.2,0-0.5,0.2-0.6,0.2
				c-0.6,0.2-1.1,0.3-1.7,0.6c-0.3,0.2-0.6,0.2-0.9,0.3c-0.5,0.2-0.9,0.3-1.4,0.5c-0.3,0.2-0.6,0.3-0.9,0.3
				c-0.5,0.2-0.9,0.3-1.2,0.6c-0.3,0.2-0.6,0.3-0.9,0.5c-0.5,0.2-0.8,0.3-1.2,0.6c-0.3,0.2-0.6,0.3-0.9,0.5
				c-0.5,0.2-0.8,0.5-1.2,0.6c-0.3,0.2-0.6,0.3-0.9,0.5c-0.5,0.2-0.8,0.5-1.2,0.6c-0.3,0.2-0.6,0.3-0.9,0.5
				c-0.5,0.2-0.8,0.5-1.2,0.6c-0.3,0.2-0.6,0.3-0.9,0.5c-0.5,0.3-0.8,0.5-1.2,0.8c-0.3,0.2-0.6,0.3-0.9,0.5
				c-0.5,0.3-0.9,0.5-1.4,0.8c-0.3,0.2-0.5,0.3-0.8,0.5c-0.5,0.3-1.1,0.6-1.6,0.9c-0.2,0.2-0.3,0.3-0.6,0.3
				c-0.8,0.5-1.4,0.9-2.2,1.4c-0.2,0.2-0.3,0.2-0.5,0.3c-0.6,0.3-1.1,0.8-1.7,1.1c-0.3,0.2-0.5,0.3-0.8,0.6
				c-0.5,0.3-0.9,0.6-1.4,0.9c-0.3,0.2-0.6,0.5-0.9,0.6c-0.5,0.3-0.8,0.6-1.2,0.9c-0.3,0.2-0.6,0.5-0.9,0.6
				c-0.5,0.3-0.8,0.6-1.2,0.9c-0.3,0.2-0.6,0.5-0.9,0.6c-0.5,0.3-0.8,0.6-1.2,0.9c-0.3,0.2-0.6,0.5-0.9,0.6
				c-0.5,0.3-0.9,0.6-1.2,0.9c-0.3,0.2-0.6,0.5-0.9,0.6c-0.5,0.3-0.9,0.6-1.4,1.1c-0.3,0.3-0.8,0.5-1.1,0.8
				c-0.6,0.5-1.1,0.9-1.7,1.2c-0.5,0.3-0.9,0.8-1.4,1.1c-0.3,0.3-0.6,0.5-0.9,0.8c-0.5,0.3-0.9,0.8-1.6,1.1
				c-0.3,0.2-0.5,0.3-0.8,0.6c-0.8,0.6-1.6,1.1-2.3,1.7c-1.1,0.8-2.2,1.6-3.1,2.3c-0.3,0.2-0.5,0.3-0.8,0.6c-0.9,0.6-2,1.4-3,2
				C657.5,647.4,657.5,647.4,657.3,647.4z"/>
			<path class="st0" d="M941.7,676.7L941.7,676.7C772.8,596.7,615,746.5,539.9,787.1c-75.1,40.6-192.6,22.6-275.3-67.9
				s-140-93-140-93l10.3,40.3l0,0c1.9,0.3,3.6,0.8,5.5,1.2c46.7,11.9,76.5,52.4,110.3,83.5c37.5,34.3,81.2,62.7,130.3,77.3
				c89.7,26.5,163.1,1.4,209.9-35.1c51.5-40.3,74.1-42.9,74.1-42.9c29.3-41.8,67.1-42.1,67.1-42.1c81.2-71,204.6-17.5,204.6-17.5
				C938.4,686.1,940.1,681.4,941.7,676.7z"/>
			<path class="st0" d="M944.8,667.2c1.9-5.9,3.6-11.9,5.2-17.8c0,0-101-55.1-222.7-11.4S516.5,801.4,414,753
				c-111.6-52.8-51.5-143.3-13.7-136.6c0,0,4.1,0.3,7.5,2.5c0.2,0.2,0.5,0.3,0.6,0.5c0.2,0,0.2,0.2,0.2,0.2c0.2,0.2,0.2,0.2,0.3,0.3
				l0.2,0.2c0.2,0.2,0.2,0.2,0.3,0.3c0,0.2,0.2,0.2,0.2,0.3c0,0.2,0.2,0.2,0.2,0.3c0,0.2,0,0.2,0.2,0.3c0,0.2,0.2,0.3,0.2,0.3
				c0,0.2,0,0.2,0,0.3c0,0.2,0,0.3,0.2,0.3c0,0.2,0,0.2,0,0.3c0,0.2,0,0.2,0,0.3c0,0.2,0,0.2,0,0.3c0,0.2,0,0.2,0,0.3
				c0,0.2,0,0.2,0,0.3c0,0.2,0,0.3,0,0.3c0,0.2,0,0.2-0.2,0.3c0,0.2,0,0.2-0.2,0.3c0,0.2-0.2,0.2-0.2,0.3c0,0.2-0.2,0.2-0.2,0.3
				c0,0.2-0.2,0.2-0.2,0.3c0,0.2-0.2,0.2-0.2,0.3s-0.2,0.2-0.2,0.3c0,0.2-0.2,0.2-0.2,0.3c0,0.2-0.2,0.2-0.3,0.2
				c-0.2,0.2-0.2,0.2-0.3,0.3c-0.2,0-0.2,0.2-0.3,0.2c-0.2,0-0.2,0.2-0.3,0.2s-0.2,0.2-0.3,0.2c-0.2,0-0.2,0.2-0.3,0.2
				c-1.1,0.5-1.6,1.7-1.4,3l0,0c0,0.2,0,0.2,0.2,0.3v0.2c0,0.2,0.2,0.2,0.2,0.3c0,0.2,0,0.2,0.2,0.3c0,0.2,0.2,0.2,0.2,0.3
				c0,0.2,0.2,0.2,0.2,0.3s0.2,0.2,0.2,0.3c0,0.2,0.2,0.2,0.2,0.3c0,0.2,0.2,0.2,0.2,0.3c0,0.2,0.2,0.2,0.2,0.3
				c0.2,0.2,0.2,0.2,0.3,0.3c0,0.2,0.2,0.2,0.2,0.3c0.2,0.2,0.2,0.2,0.3,0.3l0.2,0.2c0.2,0.2,0.2,0.2,0.3,0.3c0.2,0,0.2,0.2,0.3,0.2
				c0.2,0.2,0.3,0.2,0.3,0.3c0.2,0,0.2,0.2,0.3,0.2c0.2,0.2,0.3,0.2,0.3,0.3c0.2,0,0.2,0.2,0.3,0.2c0.2,0.2,0.3,0.2,0.5,0.3
				c0.2,0,0.2,0.2,0.3,0.2c0.2,0.2,0.3,0.2,0.5,0.3c0.2,0,0.2,0.2,0.3,0.2c0.2,0,0.5,0.2,0.6,0.2c0.2,0,0.2,0,0.3,0.2
				c0.3,0,0.5,0.2,0.8,0.2c0.2,0,0.2,0,0.3,0c0.2,0,0.5,0.2,0.8,0.2c0.2,0,0.3,0,0.5,0c0.3,0,0.6,0,0.8,0c0.2,0,0.3,0,0.3,0
				c0.5,0,0.8,0,1.2,0c10.3-0.2,9.5-13.9,7.3-20.9c-3.4-10.1-14.7-14.7-24.3-16.2c-12.8-2-25.8,1.1-36.5,8.3
				c-5.3,3.6-10,8.1-14,13.1c-2.2,2.8-4.2,5.6-6.1,8.7c-0.6,1.1-4.8,10.3-5.5,10.3c0,0-20.8,0-18.4,26.1c0,0-16.7,3.9-12.2,25.4
				c4.4,21.5,85.1,105,183.7,90.5C589.6,768.6,738.6,577.3,944.8,667.2L944.8,667.2z"/>
			<path class="st0" d="M932.9,700.1c0,0-70.9-26.7-140.2-13.1c-17.2,3.4-33.6,10.9-46.8,22.5c-9.5,8.3-18.1,19-17.8,31.1
				c0,0,1.6,15.6,17.6,12c11.4-2.7,8.9-17.9-2-15c-1.1,0.3-2.2-0.8-1.9-1.9c2.5-8.9,15.5-36.4,77.1-41c44.9-3.4,84.9,7.5,109.1,16.4
				C930,707.5,931.5,703.9,932.9,700.1z"/>
			<path class="st0" d="M718,732.9c0.3-5.3,2.7-10.8,2.7-11.1c-39.3,15.5-49,33.1-48.7,50.1c0.2,16.5,19.7,21.4,22.9,9.8
				c2-7.2-5.3-11.7-11.5-9.1c-1.2-5.2,0.6-11.4,3.1-15.8C695.9,741,718,732.9,718,732.9z"/>
			<path class="st0" d="M920.1,728.7c1.7-3.4,3.4-7,5-10.5c-116-34.8-159.5-0.3-168.2,8.6c-0.9,0.9-0.9,2.5,0,3.3
				c8.6,7.8,10.9,25.6-8.6,32.5c-16.5,5.8-25.9-8.9-29-15c-0.8-1.6-2.8-2.3-4.4-1.7c-9.5,3.4-15.8,12.2-18.4,16.1
				c-0.8,1.1-0.3,2.7,0.8,3.4c14.8,10.3,3.4,35.6-16.5,32.5c-19.8-3.1-20.8-20.6-20.1-27.8c0-1.1-1.2-1.6-1.9-0.9
				c-4.2,4.4-14,14.2-26.2,27.2c-13.4,14.2-24.5,23.6-28.4,26.7c-0.9,0.6-1.2,1.9-1.1,2.8c1.6,9.4-0.8,15.5-2.3,18.3
				c-0.3,0.5,0.3,0.9,0.6,0.6c24.3-14.2,46.2-39.6,51.8-46.7c0.5-0.5,1.1-0.8,1.7-0.8c0.5,0,1.1,0.2,1.4,0.6
				c0.8,0.8,0.9,1.9,0.5,2.8c-13.6,21.8-32,39.3-39.3,45.7c-0.9,0.9-0.3,2.7,1.1,2.5c64.5-3.7,113.6-71.2,166.1-95.5
				c53.5-25,123.9-3.1,123.9-3.1c2.3-4.2,4.7-8.4,6.9-12.6l0,0c-84.6-24.7-130.2-4.4-139.1,0.3c-0.3,0.2-0.6,0.3-1.1,0.3
				c-0.6,0-1.4-0.3-1.7-0.9c-0.8-0.9-0.6-2.5,0.5-3.3C823.7,697.8,920.1,728.7,920.1,728.7z"/>
			<circle class="st0" cx="664.6" cy="596.8" r="6.2"/>
			<ellipse class="st0" cx="925.1" cy="606.2" rx="8.1" ry="8.1"/>
			<path class="st0" d="M961.6,584.5c0.3-2.8,0.5-5.8,0.8-8.6l-25.8-25.8c-2.8-2.8-4.2-6.4-4.2-10c0-3.6,1.4-7.3,4.2-10l8.3-8.3
				l-130-62.7c-2.5-1.2-4.1-3.6-4.1-6.4v-4.4c0-2.3-1.2-4.5-3.1-5.9l-67.9-45.6l-7.3-17.8c-0.9-2-2.3-3.9-4.1-5.3l-27.6-20.6
				l-6.9-11.9c-1.1-1.9-2.7-3.4-4.4-4.7c-5.9-3.7-20.6-13.6-36.4-27.9c-19.4-17.8-54.8-66.8-74.4-80.8c-1.7-1.2-3.6-2-5.6-2.5
				c-5.9-1.1-20.6-3.4-39.3-3.4c-18.7,0-33.4,2.3-39.3,3.4c-2,0.3-3.9,1.2-5.6,2.5c-19.5,14-55.1,63.1-74.4,80.8
				c-15.6,14.5-30.4,24.2-36.4,27.9c-1.9,1.1-3.4,2.8-4.4,4.7l-6.9,11.9l-27.6,20.6c-1.9,1.4-3.3,3.1-4.1,5.3l-7.3,17.8L260,442.5
				c-2,1.2-3.1,3.6-3.1,5.9v4.4c0,2.7-1.6,5.2-4.1,6.4L131,518l12.2,12.2c1.9,1.9,3.1,4.2,3.7,6.7l128-64.9c2.8-1.4,4.7-4.2,5-7.3
				l0.6-4.8c0.3-2.7,1.7-5.2,3.9-6.6l67.6-47.6l31.2-29c0.6-0.6,1.7,0.2,1.2,0.9L375,397c-0.9,1.7,0.5,3.7,2.5,3.6l13.3-1.1
				c1.1,0,1.9,1.1,1.2,2c-7.2,11.9-16.7,22.6-21.7,27.8c-0.8,0.8,0.2,2,1.1,1.6c47.1-19.7,66.5-48.2,72.6-59.5
				c0.9-1.6-0.8-3.4-2.5-2.8c-10.1,4.2-21.2,6.7-27.3,8c-2,0.5-3.6-1.6-2.8-3.4c13.4-31.1,30.9-54.3,37.9-62.9
				c0.8-0.9,2.3-0.3,2.2,0.9c-2,11.7-2.2,27-2.2,34.2c0,0.9,1.4,1.2,1.7,0.3c7.5-16.2,24-50.1,24-50.1c21.8-17,30.9-34.8,33.9-42
				c0.9-2,2.8-3.6,5-4.1c0.3,0,0.8-0.2,1.1-0.2c12.5-2.5,25.3-2.5,37.8,0.2c0.2,0,0.3,0,0.5,0.2c2.3,0.5,4.2,2,5.2,4.2
				c0,0,3.1,17.8,7.8,36.5c4.2,17-17.8,68.2-22.6,95.7c-0.8,4.4,0.3,8.9,3.1,12.5l20,26.1c2.3,3.1,3.6,6.9,3.4,10.6l-1.7,41
				c0,1.6,2,2.5,3,1.2l22.3-26.8c1.2-1.4,3.6-1.2,4.4,0.5l28.9,55.2l26.5,15.6l10.9,33.9l33.9,21.2c0.9,0.6,2.2-0.5,1.6-1.6
				L682,541.2l5.2-20.1l-7.5-19.8c-0.5-1.2,0.9-2.5,2-1.9l51.3,25.8c2.2,1.1,4.2,3,5.5,5.2l13.1,22.6l38.7,23.6
				c1.4,0.9,3.3-0.6,2.5-2.2l-17.5-37.1c-0.6-1.4,0.8-2.8,2.2-2.2l37.9,16.5c2.2,0.9,4.1,2.5,5.3,4.5l13,20.6c1.2,1.9,3,3.3,5,4.1
				l48.7,18.4c1.2,0.5,2.2-1.2,1.1-2L856,572.8c-1.6-1.2-3-2.8-3.7-4.5l-9.1-19.5c-0.6-1.4-1.7-2.8-2.8-3.9l-35.7-34.3
				c-0.9-0.9,0.2-2.5,1.2-2l43.7,18.4c1.6,0.6,2.8,1.6,3.9,2.8l18.4,20.9c1.6,1.7,3.4,3.1,5.6,3.9L961.6,584.5L961.6,584.5z"/>
			<circle class="st0" cx="736.6" cy="586.7" r="5"/>
			<path class="st0" d="M738.3,617.4c-0.9,0.3-1.9,0.8-2.8,1.1c-0.2,0.2-0.3,0.2-0.6,0.3c-0.8,0.3-1.6,0.6-2.3,0.9
				c-0.2,0.2-0.3,0.2-0.6,0.3c-0.9,0.3-1.7,0.8-2.5,1.1c-0.2,0.2-0.3,0.2-0.6,0.3c-0.8,0.3-1.4,0.6-2.2,0.9c-0.2,0-0.3,0.2-0.5,0.2
				c-0.8,0.3-1.6,0.8-2.3,1.1c-0.2,0.2-0.3,0.2-0.5,0.3c-0.6,0.3-1.2,0.6-1.9,0.9c-0.2,0-0.3,0.2-0.5,0.2c-0.8,0.3-1.4,0.8-2,1.1
				c-0.2,0.2-0.3,0.2-0.5,0.3c-0.6,0.3-1.1,0.6-1.7,0.9c-0.2,0-0.2,0.2-0.3,0.2c-0.6,0.3-1.2,0.8-1.9,1.1c-0.2,0.2-0.3,0.2-0.5,0.3
				c-0.5,0.3-1.1,0.6-1.6,0.9c-0.2,0-0.2,0.2-0.3,0.2c-0.6,0.3-1.1,0.6-1.6,0.9c-0.2,0.2-0.3,0.2-0.3,0.2c-0.5,0.3-0.9,0.6-1.2,0.8
				c0,0-0.2,0-0.2,0.2c-0.9,0.6-0.2,1.9,0.8,1.6c0.2,0,0.2-0.2,0.3-0.2c1.2-0.6,2.7-1.1,3.9-1.6c0.3-0.2,0.5-0.2,0.8-0.3
				c1.1-0.5,2.2-0.9,3.4-1.2c0.3-0.2,0.6-0.3,0.9-0.3c1.2-0.5,2.7-0.9,3.9-1.4c0.3-0.2,0.5-0.2,0.8-0.3c1.1-0.5,2.2-0.8,3.3-1.1
				c0.3-0.2,0.6-0.2,0.9-0.3c1.2-0.5,2.7-0.8,3.9-1.2c0.2,0,0.5-0.2,0.6-0.2c1.1-0.3,2.2-0.6,3.3-1.1c0.3-0.2,0.6-0.2,0.9-0.3
				c1.2-0.3,2.5-0.8,3.7-1.1c0.2,0,0.3-0.2,0.5-0.2c1.1-0.3,2.2-0.6,3.4-0.9c0.3-0.2,0.6-0.2,0.9-0.3c1.2-0.3,2.5-0.6,3.7-0.9
				c0.2,0,0.3,0,0.5-0.2c1.1-0.3,2.2-0.5,3.4-0.8c0.3,0,0.6-0.2,0.9-0.2c1.2-0.3,2.5-0.6,3.6-0.8h0.2c1.1-0.3,2.3-0.5,3.4-0.8
				c0.3,0,0.6-0.2,0.9-0.2c1.2-0.3,2.3-0.5,3.6-0.6h0.2c1.1-0.2,2.3-0.5,3.4-0.6c0.3,0,0.6-0.2,0.9-0.2c1.1-0.2,2.2-0.3,3.3-0.6
				c0,0,0,0,0.2,0c1.1-0.2,2.2-0.3,3.4-0.5c0.3,0,0.6-0.2,0.8-0.2c1.1-0.2,2-0.3,3.1-0.5h0.2c1.1-0.2,2.2-0.3,3.1-0.5
				c0.3,0,0.5,0,0.8-0.2c0.9-0.2,1.9-0.2,2.8-0.3c0.2,0,0.2,0,0.3,0c1.1-0.2,2-0.2,3-0.3c0.3,0,0.5,0,0.8,0c0.9-0.2,1.7-0.2,2.5-0.3
				c0.2,0,0.3,0,0.5,0c0.9-0.2,1.9-0.2,2.8-0.2c0.3,0,0.5,0,0.6,0c0.8,0,1.6-0.2,2.3-0.2c0.2,0,0.3,0,0.5,0c0.9,0,1.7-0.2,2.7-0.2
				c0.2,0,0.5,0,0.6,0c0.8,0,1.4,0,2.2-0.2c0.2,0,0.3,0,0.5,0c0.8,0,1.6,0,2.3-0.2c0.2,0,0.3,0,0.5,0c0.6,0,1.2,0,1.9,0
				c0.2,0,0.3,0,0.5,0c0.8,0,1.4,0,2.2,0c0.2,0,0.3,0,0.5,0c0.6,0,1.1,0,1.7,0c0.2,0,0.3,0,0.5,0c0.6,0,1.2,0,1.9,0
				c0.2,0,0.3,0,0.5,0c0.5,0,0.9,0,1.4,0c0.2,0,0.3,0,0.5,0c0.5,0,1.1,0,1.6,0c0,0,0,0,0.2,0c0.9,0,1.2-1.4,0.2-1.7
				c-0.2,0-0.5-0.2-0.6-0.2c-1.4-0.3-2.8-0.6-4.2-0.8c-0.2,0-0.2,0-0.3,0c-1.4-0.3-3-0.5-4.4-0.6c-0.3,0-0.8-0.2-1.1-0.2
				c-1.4-0.2-2.8-0.3-4.2-0.5c0,0,0,0-0.2,0c-1.4-0.2-2.8-0.3-4.2-0.3c-0.3,0-0.6,0-1.1,0c-1.4-0.2-2.8-0.2-4.2-0.2h-0.2
				c-1.4,0-2.7,0-4.1-0.2c-0.3,0-0.6,0-0.9,0c-1.4,0-2.7,0-4.1,0c-0.2,0-0.2,0-0.3,0c-1.2,0-2.5,0.2-3.7,0.2c-0.3,0-0.6,0-0.9,0
				c-1.2,0.2-2.7,0.2-3.9,0.3c-0.2,0-0.3,0-0.3,0c-1.2,0.2-2.3,0.2-3.6,0.3c-0.3,0-0.6,0-0.9,0.2c-1.2,0.2-2.5,0.3-3.7,0.5
				c-0.2,0-0.3,0-0.5,0c-1.1,0.2-2.2,0.3-3.3,0.5c-0.3,0-0.6,0.2-0.9,0.2c-1.2,0.2-2.3,0.5-3.6,0.6c-0.2,0-0.3,0-0.5,0.2
				c-1.1,0.2-2,0.5-3.1,0.6c-0.3,0-0.6,0.2-0.8,0.2c-1.1,0.3-2.2,0.5-3.4,0.8c-0.2,0-0.3,0.2-0.6,0.2c-0.9,0.3-1.9,0.5-2.8,0.8
				c-0.3,0-0.5,0.2-0.8,0.2c-1.1,0.3-2.2,0.6-3.1,0.9c-0.2,0-0.3,0.2-0.6,0.2c-0.9,0.3-1.9,0.6-2.7,0.9c-0.2,0-0.5,0.2-0.6,0.2
				c-0.9,0.3-2,0.6-3,1.1c-0.2,0-0.3,0.2-0.6,0.2c-0.8,0.3-1.7,0.6-2.5,0.9C738.6,617.3,738.5,617.4,738.3,617.4z"/>
			<path class="st0" d="M892.8,775.8c0,0-46.5-15.6-106.9,15.5C716.1,827,664.5,920.2,564.6,948c0,0,4.7,6.7,13,15.1
				c14.4-1.2,28.7-3.3,42.8-5.9c0,0,0,0,0.2,0c1.7-0.6,28.6-11.4,62.1-48.1c34.3-37.5,99.1-129.4,202-121
				C887.4,783.9,890.2,779.9,892.8,775.8z"/>
			<path class="st0" d="M187.7,721.8c51,51.3,95.5,111.7,156.1,152.5c110.3,74.4,199.3,55.1,199.3,55.1
				c-49.5-1.6-69.1-27.6-69.1-27.6c-35.9-1.2-56.5-5.9-81-16.7c-35.6-15.5-67.6-38.1-96.3-64.1c-26.7-24.2-50.6-51.2-73.7-78.7
				c-21.8-26.1-46.8-51.5-80.4-61.3c-0.9-0.3-2-0.6-3.1-0.8c1.6,4.7,3.3,9.2,5.2,13.9l0,0C160.7,699.3,175.1,709.2,187.7,721.8z"/>
			<path class="st0" d="M300.1,644.1c0-2.8-2.2-5-5-5c-2.8,0-5,2.2-5,5c0,2.8,2.2,5,5,5C297.9,649.1,300.1,646.8,300.1,644.1z"/>
			<path class="st0" d="M530.1,880.7c6.7-0.8,20.4-2.8,27.8-8.1c0.9-0.6,1.1-2,0.2-2.8c-2-1.6-5.2-5-8.4-12.3
				c-0.5-0.9-1.4-1.2-2.3-0.8c-2.5,1.2-7.3,3.4-12.8,4.2c-0.9,0.2-1.6,0.9-1.4,1.7c0.2,2.8-0.2,9.1-4.5,15.3
				C527.6,879.1,528.6,880.9,530.1,880.7z"/>
			<path class="st0" d="M464.3,884.8c-0.6-2-1.2-5-1.9-8.7c-0.2-1.4-1.2-2.3-2.7-2.3c-12-0.5-67.3-3.7-98.9-21.4
				c-0.8-0.5-1.4,0.6-0.8,1.1c11.7,9.8,43.9,31.4,101.3,35C463.3,888.5,464.7,886.6,464.3,884.8z"/>
			<path class="st0" d="M234.5,651.1c11.7-5.2,23.1,10.9,27.9,19c9.7,16.2,17.6,33.6,29.3,48.5c11.2,14.5,24.3,27.8,39,38.9
				c30,22.3,66,35.1,103.2,37.9c15,1.1,30.7,1.1,45.7-1.7c-17.3,3-37.9-0.5-54.5-4.4c-42.9-10-81.8-35.4-111.1-68
				c-14.5-16.2-24.7-33.7-34.3-53.1c-7.6-14.8-18.3-31.1-36.5-32.5c-13.6-1.1-29.3,11.2-22.3,26.8c3.4,7.6,16.1,11.9,19.4,1.4
				c0.2-0.5,0.2-6.2-0.6-5.9c-0.6,0.3-1.2,0.6-1.9,0.8C232.8,660.6,229.7,653.2,234.5,651.1z"/>
			<path class="st0" d="M837.4,842.6L837.4,842.6L837.4,842.6l24.8-26.7l0.5-0.5l0.2-0.2c-0.8-0.2-26.5-3.4-48.1,12.3
				c0,0-36.4-11.2-41.4,20.9c0,0-17.6,3.6-19.2,20.1c-0.6,7.3,0.8,15.5,7.8,19c5,2.7,15.9,3.3,18.1-3.3c0.8-2.3,0.3-5-0.5-7.3
				c-0.2-0.5-0.3-0.8-0.6-1.1c-0.8-0.6-2,0.2-2.7,0.9c-2,2.5-4.4,2-6.1-0.6C768.3,873.5,771.6,839.5,837.4,842.6z"/>
			<path class="st0" d="M903.9,758.5L903.9,758.5c0,0-57-17.9-114.4,6.1c-57.4,24-106.1,99.6-182.3,94.4c0,0-31.2,0.5-36.4-17.9
				c0,0,0,0,0-0.2c-1.2-5.9,7.2-8.9,10-3.4c1.1,2.2,2.8,3.9,5.3,3.9c6.7,0,11.7-8.3,5.5-18.4c-9.7-15.6-36.4-3.3-37.6,12.3
				c-1.1,12.3,5.5,24.3,15.9,30.6c13,7.6,29.5,6.7,43.7,3.9c1.4-0.3,2.5,1.4,1.6,2.5c-5.9,7.2-24.8,23.1-75.4,20.4
				c-10.9-0.6-24.3-1.2-34.6-6.2c-9.5-4.7-14-16.4-5-24.2c1.1-0.9,3-0.2,3,1.2c0,4.2,0.9,11.2,7.6,12c9.8,1.2,16.1-10.1,9.4-22.3
				c-6.7-12.2-35.1-13.3-43.7,6.2c-8.6,19.5-0.5,46.5,41.8,53.1c0,0,55.1,13,106.6-14.8c51.5-27.8,149-161.2,274.5-132.2
				C900.8,763.3,902.3,761,903.9,758.5z"/>
			<path class="st0" d="M878.3,796.1c-48.5-3.1-81.9,20-81.9,20c10.6,0.5,13,2.3,13,2.3c34.3-19.5,61.8-13,61.8-13
				C873.6,802.4,876,799.2,878.3,796.1z"/>
			<path class="st0" d="M707.1,899.9c-24.3,30.4-43.4,45.9-44.3,46.7c18.6-5.6,36.7-12.5,54.3-20.6l0,0
				c16.4-17.9,30.3-37.8,30.3-37.8c-4.4-10.3-3.6-29.5-3.6-29.5S732.1,868.7,707.1,899.9z"/>
			<path class="st0" d="M281.2,561.8c-0.6,0-1.4-0.5-1.6-1.1c-0.8-3.6-5.8-13.4-18.9-14.5c-11.9-0.9-18.1,3.4-20.6,5.8
				c-0.8,0.8-2,0.8-2.8,0.2c-3.9-2.8-14.5-8.9-28.1-4.2c-17.2,5.9-18.7,23.1-18.7,23.1c-25.4-1.2-32,25.8-32,25.8
				c19.2,10.9,28.6,24.5,28.6,24.5s-0.8-23.9,16.4-30.9c14.2-5.8,24.7,1.2,27.9,3.7c0.5,0.5,0.5,1.1-0.2,1.4c0,0-0.2,0-0.2,0.2
				c-5.8,3.1-4.8,11.9,1.4,13.9c6.4,2,15.1,1.1,16.7-8.7c1.7-11.5-5.6-20.1-9.5-23.7c-0.9-0.9-0.6-2.7,0.6-3.1
				c32.3-13.9,46.8,5.3,51.2,12.8c0.6,1.2-0.2,2.8-1.6,2.8c-0.6,0.2-1.2,0.2-1.9,0.3c-5,1.4-5,8.3,0,9.8
				c14.8,4.7,26.8-8.9,19.2-23.9C299.9,561.5,285.6,561.5,281.2,561.8z"/>
			<rect x="494.2" y="66.3" transform="matrix(0.7071 -0.7071 0.7071 0.7071 94.9604 376.3405)" width="15.1" height="14.5"/>
			<rect x="570.8" y="66" transform="matrix(0.7071 -0.7071 0.7071 0.7071 117.2779 430.2901)" width="14.5" height="15.1"/>
			<polygon points="539.9,122.5 573,89.4 562.3,78.8 539.9,101.1 517.6,78.8 506.9,89.4 			"/>
			<polygon points="533.9,62.6 539.9,68.7 546,62.6 539.9,56.5 			"/>
			<polygon points="528.4,57.3 539.9,45.7 551.5,57.3 561.8,47 539.9,25.1 518.3,47 			"/>
			<path class="st0" d="M480.5,73.8l15.6,15.6l5.3,5.3l38.4,38.4l38.4-38.4l5.3-5.3l15.6-15.6l-15.8-16.1l-5.3-5.3L557,73.5
				l-17,16.9l-17-17l-5.3-5.3L502,52.4l-5.3,5.3L480.5,73.8z M577.9,63.2L588.6,74l-10.3,10.3l-10.8-10.8L577.9,63.2z M517.6,78.8
				l22.3,22.3l22.3-22.3L573,89.6l-33.1,32.9l-33.1-33.1L517.6,78.8z M501.6,84.1l-10.3-10.3L502,63.1l10.3,10.3L501.6,84.1z"/>
			<path class="st0" d="M507.9,46.4l-0.5,0.5l5.3,5.3l10.3,10.3l5.3,5.3l11.5,11.5l11.5-11.5l5.3-5.3l10.3-10.3l5.3-5.3l-0.5-0.5
				l-4.8-4.8l-27.2-27l-27.2,27.2L507.9,46.4z M539.9,68.7l-6.1-6.1l6.1-6.1l6.1,6.1L539.9,68.7z M539.9,25.1L561.8,47l-10.3,10.3
				l-11.5-11.5l-11.5,11.5L518.1,47L539.9,25.1z"/>
			<rect x="570.5" y="999.2" transform="matrix(0.7071 -0.7071 0.7071 0.7071 -542.3391 703.5555)" width="15.1" height="14.5"/>
			<rect x="494.6" y="998.8" transform="matrix(0.7071 -0.7071 0.7071 0.7071 -564.6589 649.6072)" width="14.5" height="15.1"/>
			<polygon points="506.9,990.6 517.6,1001.2 539.9,978.9 562.3,1001.2 573,990.6 539.9,957.5 			"/>
			<polygon points="546,1017.4 539.9,1011.3 533.9,1017.4 539.9,1023.5 			"/>
			<polygon points="539.9,1034.3 528.4,1022.7 518.1,1033 539.9,1054.9 561.6,1033 551.5,1022.7 			"/>
			<path class="st0" d="M501.6,985.1l-5.3,5.3l-15.6,15.6l16.1,16.1l5.3,5.3l21.1-21.1l17-17l17,17l5.3,5.3l15.6,15.6l5.3-5.3
				l16.1-16.1l-15.6-15.6l-5.3-5.3l-38.5-38.2L501.6,985.1z M502,1016.8l-10.8-10.8l10.3-10.3l10.8,10.8L502,1016.8z M588.6,1006.2
				l-10.8,10.8l-10.3-10.3l10.8-10.8L588.6,1006.2z M573,990.6l-10.8,10.8l-22.3-22.5l-22.3,22.3l-10.8-10.8l33.1-33.1L573,990.6z"
				/>
			<path class="st0" d="M556.8,1017.4l-5.3-5.3l-11.5-11.5l-11.5,11.5l-5.3,5.3l-10.3,10.3l-5.3,5.3l0.5,0.5l4.8,4.8l27.2,27.2
				l27.2-27.2l4.8-4.8l0.5-0.5l-5.3-5.3L556.8,1017.4z M539.9,1011.3l6.1,6.1l-6.1,6.1l-6.1-6.1L539.9,1011.3z M561.6,1033
				l-21.7,21.8l-21.8-21.8l10.3-10.3l11.5,11.5l11.5-11.5L561.6,1033z"/>
			<path d="M1075.6,530l-32-32l-0.5-0.5c-0.9-0.9-2-1.9-3.3-2.5c-0.5-0.9-1.1-1.7-1.9-2.7c-0.2-0.2-0.2-0.2-0.3-0.3
				c0-0.2-0.2-0.2-0.3-0.3l-11.9-11.9c-2.5-19.8-6.1-39.5-10.9-58.8c-2.8-11.1-5.9-22.2-9.5-32.9c-18.3-55.9-46.2-107.4-83-153.4
				c-51.5-64.3-118.8-114.9-194.6-146.4c-40.9-17-83.3-28.1-126.9-33.6l-12.3-12.3l-0.2-0.2c-0.9-0.9-2-1.7-3.3-2.5
				c-0.6-1.1-1.4-2.2-2.3-3.1L549.9,4.2c-2.7-2.7-6.2-4.2-10-4.2c-3.7,0-7.3,1.6-10,4.2l-32,32l-0.5,0.5c-0.9,0.9-1.9,2-2.5,3.3
				c-1.1,0.6-2,1.2-2.8,2.2c-0.2,0-0.2,0.2-0.3,0.3l-0.2,0.2l-12.3,12.3c-64.9,8.1-127.8,29.2-184.6,62c-0.6,0.3-1.1,0.6-1.7,0.9
				l-3.7,2.2c-27.8,16.5-54,36.1-77.9,57.7c-48.5,44-87.2,96.3-114.9,155.3c-21.8,46.8-36.1,96-42.3,146.9l-11.9,11.9
				c-0.2,0.2-0.3,0.5-0.5,0.6c-0.8,0.8-1.4,1.7-1.9,2.7c-1.1,0.6-2.2,1.4-3.1,2.3L4.5,529.9c-2.7,2.7-4.2,6.2-4.2,10
				c0,3.7,1.6,7.3,4.2,10l32,32l0.5,0.5c0.9,0.9,2,1.9,3.3,2.5c0.5,0.8,1.1,1.7,1.7,2.5c0.2,0.2,0.3,0.3,0.3,0.5
				c0,0.2,0.2,0.2,0.3,0.3l11.7,11.7c0.5,3.4,0.8,6.9,1.2,10.1c0.6,4.7,1.4,9.4,2.2,14l2.3,13.1c0.3,1.4,0.6,2.8,0.9,4.2
				c3.9,19,9.1,37.9,15.3,56.3c1.2,3.9,2.8,8,4.2,12.2c20.4,55.4,50.4,106.3,89.3,151.2c0.6,0.6,1.1,1.2,1.7,1.9
				c79.9,91.5,190.4,149.4,309.5,163.9l10.9,10.9c0.5,0.5,1.1,0.9,1.6,1.4c0.5,0.5,1.1,0.8,1.7,1.1c0.6,1.1,1.4,2.2,2.3,3.1
				l32.5,32.5c2.7,2.7,6.2,4.2,10,4.2c3.7,0,7.3-1.6,10-4.2l32-32l0.5-0.5c0.9-0.9,1.9-2,2.5-3.3c0.5-0.3,1.1-0.6,1.6-1.1
				c0.5-0.3,0.9-0.6,1.2-1.1c0.2,0,0.2-0.2,0.3-0.3l10.9-10.9c30.9-3.7,61.3-10.3,91-19.8c6.6-2.2,13.4-4.5,20.3-7
				c0.5-0.2,0.8-0.3,1.2-0.5l2.7-1.1c94.1-35.9,174-98.9,230.8-182.6c12.8-18.7,24.3-38.5,34.5-59.2c0-0.2,0.6-1.1,0.6-1.1
				c3-6.1,5.9-12.3,8.6-18.4c1.1-2.3,2-4.7,3.1-7.2c0-0.2,0.3-0.6,0.3-0.6c2.8-6.9,5.5-13.4,7.8-19.8c4.4-11.7,8.1-23.7,11.5-35.7
				c6.7-24,11.7-48.8,14.7-73.8l11.7-11.7c0.3-0.3,0.5-0.5,0.6-0.8c0.6-0.8,1.2-1.6,1.7-2.5c1.1-0.6,2.2-1.4,3.1-2.3l32.5-32.5
				c2.7-2.7,4.2-6.2,4.2-10C1079.6,536.3,1078.2,532.7,1075.6,530z M989.6,540l17,17l21.1,21.1l-5.3,5.3l-16.1,16.1l-15.6-15.6
				l-5.3-5.3L946.7,540l38.4-38.4l5.3-5.3l15.6-15.6l16.1,16.1l5.3,5.3l-15.6,15.6l-5.3,5.3L989.6,540z M773.9,737
				c0.5,0.6,1.1,0.9,1.7,0.9c0.3,0,0.8-0.2,1.1-0.3c8.9-4.7,54.5-25,139.1-0.3l0,0c-2.2,4.2-4.5,8.4-6.9,12.6
				c0,0-70.4-21.8-123.9,3.1c-52.4,24.3-101.8,91.8-166.1,95.5c-1.4,0.2-2-1.6-1.1-2.5c7.2-6.4,25.8-23.7,39.3-45.7
				c0.6-0.9,0.3-2-0.5-2.8c-0.5-0.3-0.9-0.6-1.4-0.6c-0.6,0-1.2,0.3-1.7,0.8c-5.6,6.9-27.5,32.5-51.8,46.7c-0.5,0.3-0.9-0.2-0.6-0.6
				c1.6-2.8,3.9-8.9,2.3-18.3c-0.2-1.1,0.2-2.2,1.1-2.8c3.7-3.1,15-12.5,28.4-26.7c12.2-13,22-22.8,26.2-27.2c0.8-0.8,2-0.2,1.9,0.9
				c-0.5,7.3,0.3,24.7,20.1,27.8c20,3.1,31.4-22.2,16.5-32.5c-1.1-0.8-1.4-2.2-0.8-3.4c2.5-4.1,8.9-12.6,18.4-16.1
				c1.7-0.6,3.6,0.2,4.4,1.7c3.1,6.2,12.5,20.9,29,15c19.5-6.9,17-24.7,8.6-32.5c-0.9-0.9-0.9-2.3,0-3.3
				c8.7-8.7,52.1-43.4,168.2-8.6c-1.6,3.6-3.3,7-5,10.5c0,0-96.5-30.9-145.9,5.2C773.3,734.5,773.1,736,773.9,737z M770.3,876.5
				c1.7,2.7,4.1,3.1,6.1,0.6c0.6-0.8,1.9-1.6,2.7-0.9c0.3,0.3,0.5,0.6,0.6,1.1c0.9,2.3,1.2,5,0.5,7.3c-2.2,6.6-13.1,5.9-18.1,3.3
				c-7-3.6-8.6-11.9-7.8-19c1.6-16.4,19.2-20.1,19.2-20.1c5.2-32.2,41.4-20.9,41.4-20.9c21.5-15.8,47.3-12.5,48.1-12.3
				c0,0,0,0-0.2,0.2l-0.5,0.5l-24.7,26.5l-0.2,0.2l0,0C771.6,839.5,768.3,873.5,770.3,876.5z M809.3,818.4c0,0-2.3-2-13-2.3
				c0,0,33.2-23.1,81.9-20c-2.3,3.1-4.8,6.2-7.3,9.4C871.1,805.5,843.7,798.9,809.3,818.4z M682.6,908.9
				c-33.7,36.7-60.6,47.4-62.1,48.1h-0.2c-14,2.7-28.2,4.7-42.8,5.9c-8.1-8.3-13-15.1-13-15.1c99.9-27.8,151.5-121,221.3-156.7
				c60.6-31.1,106.9-15.5,106.9-15.5c-2.7,4.1-5.5,8.1-8.4,12.2C781.5,779.6,716.9,871.3,682.6,908.9z M747.4,888.3
				c0,0-13.9,19.7-30.3,37.8l0,0c-17.6,8.1-35.7,15-54.3,20.6c0.9-0.8,20-16.2,44.3-46.7c25-31.2,36.7-41,36.7-41
				S743,878,747.4,888.3z M578.3,985.1l5.3,5.3l15.6,15.6l-15.9,16.2l-5.3,5.3l-15.6-15.6l-5.3-5.3l-17.2-17l-17,17l-21.1,21.1
				l-5.3-5.3l-16.1-16.1l15.6-15.6l5.3-5.3l38.4-38.4L578.3,985.1z M139.3,680c1.1,0.3,2,0.5,3.1,0.8c33.6,10,58.5,35.4,80.4,61.3
				c23.1,27.5,47,54.5,73.7,78.7c28.7,26.1,60.7,48.7,96.3,64.1c24.7,10.8,45.3,15.6,81,16.7c0,0,19.8,26.1,69.1,27.6
				c0,0-89,19.2-199.3-55.1C283.1,833.3,238.4,773,187.5,721.7c-12.5-12.6-26.8-22.5-43.2-27.8l0,0C142.6,689.4,141,684.7,139.3,680
				z M360.8,852.3c31.8,17.6,87.1,20.9,98.9,21.4c1.4,0,2.5,1.1,2.7,2.3c0.6,3.7,1.2,6.7,1.9,8.7c0.5,1.9-0.9,3.7-3,3.6
				c-57.6-3.6-89.6-25.1-101.3-35C359.4,852.9,360,851.8,360.8,852.3z M245.9,818.6c52.4,59,128,124.7,254.1,135.3
				c1.2,0.2,1.1,1.9,0,1.9c-20.1,0.6-59.8-0.6-103.8-16.2c-0.3-0.2-0.6-0.2-0.9-0.3c-2.7-0.9-5.3-1.9-7.8-3h-0.2
				c-33.1-13-76.5-40.3-111.7-64.3c0,0,0,0-0.2,0c-12.2-9.8-24-20.3-35.3-31.5c-28.2-28.2-52.1-59.9-71-94
				C178.2,752.3,197.2,763.6,245.9,818.6z M624.8,898c-51.5,27.8-106.6,14.8-106.6,14.8c-42.1-6.7-50.4-33.6-41.8-53.1
				c8.6-19.5,37.1-18.4,43.7-6.2s0.5,23.4-9.4,22.3c-6.7-0.8-7.6-7.8-7.6-12c0-1.6-1.7-2.3-3-1.2c-9.1,7.8-4.5,19.5,5,24.2
				c10.1,5,23.7,5.6,34.6,6.2c50.6,2.8,69.5-13.1,75.4-20.4c0.9-1.1-0.2-2.8-1.6-2.5c-14.2,2.8-30.7,3.7-43.7-3.9
				c-10.6-6.2-17-18.3-15.9-30.6c1.4-15.6,28.1-27.9,37.6-12.3c6.2,10.1,1.2,18.4-5.5,18.4c-2.5,0-4.2-1.7-5.3-3.9
				c-2.8-5.5-11.1-2.5-10,3.4c0,0.2,0,0.2,0,0.2c5.2,18.3,36.4,17.9,36.4,17.9c76.2,5.2,124.7-70.4,182.3-94.4
				c57.4-24,114.4-6.1,114.4-6.1l0,0c-1.4,2.5-3,5-4.5,7.3C773.9,736.6,676.3,870.2,624.8,898z M532.9,862.6c0-0.9,0.6-1.7,1.4-1.7
				c5.5-0.6,10.5-3,12.8-4.2c0.9-0.5,2-0.2,2.3,0.8c3.1,7.3,6.4,10.8,8.4,12.3c0.9,0.8,0.8,2-0.2,2.8c-7.3,5.2-21.1,7.3-27.8,8.1
				c-1.4,0.2-2.3-1.4-1.6-2.7C532.8,871.6,533.1,865.6,532.9,862.6z M683.5,772.9c6.2-2.8,13.6,1.9,11.5,9.1
				c-3.3,11.5-22.8,6.7-22.9-9.8c-0.3-17,9.4-34.8,48.7-50.1c-0.2,0.3-2.3,5.9-2.7,11.1c0,0-22.3,8.1-31.4,24
				C684,761.5,682.3,767.7,683.5,772.9z M819.3,694.8c-61.6,4.7-74.6,32.2-77.1,41c-0.3,1.1,0.8,2,1.9,1.9c10.9-3,13.4,12.3,2,15
				c-16.1,3.6-17.6-12-17.6-12c-0.3-12,8.3-22.8,17.8-31.1c13.3-11.5,29.5-19,46.8-22.5c69.5-13.6,140.2,13.1,140.2,13.1
				c-1.6,3.7-3,7.3-4.7,11.1C904.1,702.2,864.3,691.4,819.3,694.8z M732.1,708.4c0,0-37.9,0.5-67.1,42.1c0,0-22.6,2.8-74.1,42.9
				C544,830,470.6,855.1,380.9,828.6c-49-14.5-92.7-42.9-130.3-77.3c-33.9-30.9-63.7-71.6-110.3-83.5c-1.7-0.5-3.6-0.9-5.5-1.2l0,0
				l-10.3-40.3c0,0,57.3,2.5,140,93s200.2,108.5,275.3,67.9c75.1-40.6,232.9-190.4,401.7-110.3l0,0c-1.6,4.7-3.3,9.4-5,14
				C936.7,690.8,813.2,637.4,732.1,708.4z M90.3,540l-17-17l-21.1-21.1l5.3-5.3l16.1-16.1l15.6,15.6l5.3,5.3l38.4,38.4l-38.4,38.4
				l-5.3,5.3l-15.6,15.6l-15.9-15.8l-5.3-5.3L68,562.5l5.3-5.3L90.3,540z M120,596.8L120,596.8c0.2,0,0.3,0,0.5,0.2c0,0,0.2,0,0.3,0
				c0.2,0,0.3,0,0.5,0.2c0.2,0,0.2,0,0.3,0s0.3,0,0.6,0.2c0.2,0,0.3,0,0.5,0.2c0.2,0,0.5,0.2,0.6,0.2c0.2,0,0.3,0.2,0.6,0.2
				c0.3,0,0.5,0.2,0.8,0.2c0.2,0,0.5,0.2,0.6,0.2c0.3,0,0.6,0.2,0.8,0.2c0.2,0,0.5,0.2,0.8,0.2c0.3,0.2,0.6,0.2,0.9,0.3
				c0.3,0,0.5,0.2,0.8,0.2c0.3,0.2,0.6,0.2,1.1,0.3c0.3,0.2,0.6,0.2,0.9,0.3c0.3,0.2,0.8,0.2,1.1,0.3c0.3,0.2,0.6,0.2,0.9,0.3
				c0.3,0.2,0.8,0.3,1.2,0.5c0.3,0.2,0.6,0.2,0.9,0.3c0.5,0.2,0.8,0.3,1.2,0.5c0.3,0.2,0.6,0.3,1.1,0.3c0.5,0.2,0.9,0.3,1.4,0.5
				c0.3,0.2,0.8,0.3,1.1,0.5c0.5,0.2,0.9,0.5,1.6,0.6c0.3,0.2,0.8,0.3,1.1,0.5c0.6,0.2,1.1,0.5,1.7,0.8c0.3,0.2,0.6,0.3,0.9,0.5
				c0.8,0.3,1.6,0.6,2.3,0.9c0.2,0.2,0.3,0.2,0.5,0.2c0.9,0.5,1.9,0.9,2.8,1.4c0.3,0.2,0.5,0.3,0.8,0.5c0.8,0.3,1.4,0.8,2.2,1.1
				c0.3,0.2,0.8,0.5,1.1,0.6c0.6,0.3,1.2,0.6,1.9,0.9c0.5,0.2,0.8,0.5,1.2,0.8c0.6,0.3,1.2,0.6,1.9,0.9c0.5,0.3,0.9,0.5,1.4,0.8
				c0.6,0.3,1.2,0.6,1.7,1.1c0.5,0.3,0.9,0.6,1.4,0.9c0.6,0.3,1.2,0.8,1.7,1.1c0.5,0.3,0.9,0.6,1.4,0.9c0.6,0.5,1.2,0.8,1.7,1.2
				c0.5,0.3,0.9,0.6,1.4,0.9c0.6,0.5,1.2,0.8,1.7,1.2c0.5,0.3,0.9,0.8,1.4,1.1c0.6,0.5,1.2,0.9,1.7,1.4c0.5,0.3,0.9,0.8,1.6,1.1
				c0.6,0.5,1.2,0.9,1.7,1.4c0.5,0.5,0.9,0.8,1.6,1.2s1.2,0.9,1.7,1.6c0.5,0.5,0.9,0.8,1.4,1.2c0.6,0.5,1.2,1.1,1.9,1.6
				c0.5,0.5,0.9,0.9,1.4,1.4c0.6,0.6,1.2,1.1,1.9,1.7c0.5,0.5,0.9,0.9,1.4,1.4c0.6,0.6,1.2,1.2,1.9,1.9c0.5,0.5,0.9,0.9,1.4,1.4
				c0.2,0.2,0.2,0.2,0.3,0.3c0.9,1.1-0.3,2.5-1.6,1.9c-0.5-0.3-0.8-0.5-1.2-0.8l0,0c-0.5-0.3-1.1-0.6-1.7-1.1
				c-0.2-0.2-0.3-0.2-0.5-0.3c-0.5-0.3-0.9-0.6-1.4-0.8c-0.2-0.2-0.3-0.2-0.6-0.3c-0.6-0.3-1.2-0.8-2-1.2c0,0,0,0-0.2,0
				c-0.6-0.3-1.4-0.8-2-1.1c-0.2-0.2-0.5-0.2-0.6-0.3c-0.6-0.3-1.1-0.6-1.7-0.9c-0.2-0.2-0.5-0.2-0.6-0.3c-0.8-0.5-1.6-0.8-2.3-1.2
				c-0.2,0-0.2-0.2-0.3-0.2c-0.8-0.3-1.4-0.8-2.2-1.1c-0.3-0.2-0.5-0.3-0.8-0.3c-0.6-0.3-1.2-0.6-2-0.9c-0.2-0.2-0.5-0.2-0.6-0.3
				c-0.9-0.5-1.7-0.8-2.7-1.2c-0.2,0-0.3-0.2-0.5-0.2c-0.8-0.3-1.4-0.6-2.2-1.1c-0.3-0.2-0.6-0.3-0.8-0.3c-0.8-0.3-1.4-0.6-2.2-0.9
				c-0.2-0.2-0.5-0.2-0.6-0.3c-0.9-0.5-1.9-0.8-2.8-1.2c-0.2-0.2-0.5-0.2-0.6-0.3c-0.8-0.3-1.6-0.6-2.3-0.9
				c-0.3-0.2-0.6-0.2-0.9-0.3c-0.8-0.3-1.6-0.6-2.3-0.9c-0.2,0-0.5-0.2-0.6-0.2c-0.9-0.3-2-0.8-3-1.1c-0.3-0.2-0.5-0.2-0.8-0.3
				c-0.8-0.3-1.6-0.5-2.3-0.8c-0.3-0.2-0.6-0.2-0.9-0.3c-0.8-0.3-1.7-0.5-2.5-0.8c-0.2,0-0.3-0.2-0.5-0.2c-0.9-0.3-2-0.6-3-0.8
				c-0.3,0-0.5-0.2-0.8-0.2c-0.8-0.2-1.6-0.3-2.3-0.6c-0.3,0-0.6-0.2-0.9-0.2c-0.9-0.2-1.9-0.5-2.8-0.6c-0.2,0-0.2,0-0.3,0
				c-0.9-0.2-2-0.3-3-0.5c-0.3,0-0.6-0.2-0.8-0.2c-0.8-0.2-1.6-0.2-2.3-0.3c-0.3,0-0.6,0-0.9-0.2c-0.9-0.2-2-0.2-3-0.3
				c-1.1-5.8-1.9-11.7-2.7-17.5C119.6,596.8,119.8,596.8,120,596.8z M416.3,533.9c1.1,0.3,2.2-0.2,2.7-1.1c2-3.7,8.7-12.6,25.3-13
				c16.1-0.3,23.3,8.6,25.8,13.1c0.6,1.1,2.2,1.6,3.3,0.8c9.7-6.9,28.4-5.2,32.6,6.7c0.2,0.3,0.8,3.9,0.9,6.4c0.2,1.2,1.1,2,2.2,2.2
				c21.4,0.5,32.9,20.4,22.5,38.5c-4.1,6.9-10.5,11.2-18.4,11.9c-5.2,0.5-13.4-0.5-14-7c-0.3-3.9,3.1-7.2,6.7-8.1
				c0.3-0.2,2.2-0.3,3.7-0.5c1.1-0.2,2-0.9,2-2.2c0.5-5.8-0.5-22.8-28.4-27.6c-29.2-5.2-43.7,1.6-47.1,3.4c-0.6,0.3-1.2,0.3-1.9,0.2
				c-23.6-7.3-43.7-1.2-43.7-1.2c-39.5,10.5-42.6,45.1-42.8,51.5c0,0.6-0.3,1.2-0.9,1.7c-5.5,4.5-11.5,12.5-15.3,17.9
				c-1.2,1.7-4.1,0.9-4.2-1.2c-3.1-51.5,38.9-71.8,44.6-74.3c0.5-0.2,0.8-0.5,1.1-0.9C387.2,527.7,409.8,532,416.3,533.9z
				 M407.8,510.8c0-2.8,2.2-5,5-5c2.8,0,5,2.2,5,5c0,2.7-2.2,5-5,5C409.9,515.8,407.8,513.5,407.8,510.8z M606.6,561.7
				c19.8,18.7,7.5,33.7,3.6,37.8c-0.6,0.6-1.1,1.6-1.1,2.7c0.2,6.7-0.6,33.1-26.1,33.7c-3.3,0-6.6-0.3-9.7-1.1
				c-9.8-2.7-17.2-11.2-17.6-21.5c-0.5-8.7,5-17.2,14.8-14.7c2.2,0.6,9.8,3.7,6.1,6.7c-1.6,1.2-2.7,2.3-3.4,3.3
				c-1.7,2.2,0,5.3,2.7,5.2c13-0.6,27.8-19,12.6-43.1c-14.4-22.9-42.3-19.4-49.3-18.1c-1.1,0.2-2.2-0.2-2.8-0.9
				c-6.7-7.3-17-10-20.1-10.6c-0.6-0.2-1.1-0.6-1.2-1.2c-1.6-6.2-5-10.6-7-12.8c-0.9-0.9-0.6-2.3,0.3-3.1c21.5-15.1,45.1-4.4,49.6-2
				c0.6,0.3,1.2,0.5,1.9,0.3c43.7-4.4,45.4,29.7,45.3,37.1C605.5,560.1,605.8,560.9,606.6,561.7z M532.9,643.6
				c-2.7,8.6-6.1,27.9,10.1,42.6c14.5,13.1,27.3,17,34.2,18.3c0.5,0.2,0.5,0.8,0,0.8c-11.7,0.2-40-1.6-52.1-22.2
				c-5-8.6-7.8-18.3-8.6-28.1c-0.8-8.6,0.5-16.4,1.6-24.8c0.2-1.2-1.4-1.7-2-0.8c-0.9,1.7-2,3.4-2.7,5.2c-1.7,4.1-2.8,8.1-3.6,12.3
				c-3,16.5,2,33.1,12.5,46c9.4,11.7,22.8,20.1,37.3,23.7c0.8,0.2,0.6,1.2-0.2,1.2c-10.5,0.2-20.9-1.7-30.3-6.1
				c-29.7-13.9-39.6-53.8-29.8-83.3c1.9-5.8,4.5-11.4,7.5-16.7c0.6-1.1,1.7-1.7,3-1.6c5.9,0.5,24,0.2,33.2-22.8
				c0.2-0.5,0.6-0.8,1.2-0.9c2.3-0.2,8.6-0.2,14.5,2.5c0.5,0.3,0.6,0.9,0,1.2c-4.2,2.3-20.8,13.3-9.4,38.2c0,0-9.8,29.7,10.6,45.4
				c15.9,12.3,39.8,13.9,49.6,14c0.8,0,0.8,1.1,0.2,1.2c-9.7,2.5-34,7-54.8-4.8c-20.3-11.5-21.4-31.7-20.8-40.6
				C533.9,643.2,533.1,643,532.9,643.6z M441.8,737.3c8.3,5.3-18.7-6.7-26.8-12.2c-27.6-18.4-35.7-50.6-37-80.7
				c-0.2-5.8,2.5-11.4,7.6-14.5c2.5-1.6,5.8-2.7,10-2.7c0.8,0,1.4,0.6,1.2,1.4c-0.6,3.1-1.4,10.6,7.2,15.1c0.8,0.5,1.2,1.2,1.2,2
				c0.5,8.9,4.8,58.1,48.8,82.1c0.6,0.3,0.2,1.2-0.5,1.1c-14.5-5.5-46.5-21.8-59-62.7c-0.2-0.8-1.4-0.6-1.4,0.2
				C393.4,666.4,391.1,704.5,441.8,737.3z M437.6,747.1c0.8,0.3,0.5,1.6-0.5,1.4c-15.5-3.6-50.7-15-67.6-47.8
				c-2.7-5.2-4.4-10.6-5.5-16.4c-1.7-10-3-26.1,3.9-37c0.3-0.5,1.1-0.3,1.1,0.3C369,659.4,371.5,718.9,437.6,747.1z M415.9,648.5
				c0-0.6,0.5-1.2,1.1-1.2c2.3-0.2,8-0.8,12.6-3.7c0.8-0.5,1.7,0,1.7,0.9c-0.6,10.8,0.2,55.1,52.4,86c1.1,0.6,0.3,2.3-0.9,2
				C463.8,725.7,422.3,704.8,415.9,648.5z M459.3,599.5c-2.3,4.8-8,8.3-13.4,7.5c-1.6-0.2-3.1-0.8-4.2-1.9c-1.7-1.7-2.3-4.4-1.7-6.7
				c0.6-2.3,2.5-4.2,4.7-5.3c1.2-0.6,2.7-1.2,2.7-2.5c0-0.5-0.2-0.8-0.5-1.1c-0.5-0.8-1.1-1.6-1.7-2.3
				c-10.6-11.1-28.2-16.2-43.2-13.7c-11.9,1.9-19.2,4.7-28.6,18.1c-0.6,0.9-1.4,1.9-2.2,2.5c-0.8,0.6-1.6,0.9-2.3,1.2
				c-3.3,1.4-5.3,3-8.3,4.4c-0.6,0.3-1.2-0.3-1.1-0.9c3.9-11.9,11.1-22.2,22.2-28.2c13-7,28.6-8.1,43.2-5.9
				c6.6,0.9,13.1,2.5,19.2,5.5C453.5,575,464.9,587.9,459.3,599.5z M453.2,562.9c6.2-1.6,24.2-4.4,40.7,5.5c0.8,0.5,0.6,1.6-0.2,1.9
				c-4.2,1.6-13.9,5.9-21.4,15.8c-0.5,0.6-1.4,0.6-1.7-0.2c-1.9-3.9-7.6-14.4-17.8-21.2C452.1,564.3,452.4,563.1,453.2,562.9z
				 M398.5,590.4c0.3-0.6,0.8-1.2,1.4-2c7.6-10.9,22.5-7.8,32.2-1.6c1.1,0.6,1.4,2,0.8,3.3c-1.2,2.3-3,7-2.5,13.6
				c0.2,1.2-1.4,2.2-2.5,1.2c-4.1-3.6-12.3-9.1-28.4-11.9C398.5,592.6,397.9,591.3,398.5,590.4z M443.6,618.3c0.2-1.1,1.2-2,2.3-2
				c2,0,5.6-0.3,10.3-2.7c0.8-0.5,1.7,0.3,1.6,1.2c-3,13.7-14.5,84.9,49,112.2c0.9,0.3,0.5,1.7-0.5,1.4
				C478.8,719.5,429.1,692.5,443.6,618.3z M480.9,693.3c-9.1-12.2-14.2-26.8-15.1-41.8c-1.2-18.3,0.3-47.6,19.7-64.8
				c0.6-0.6,1.7-0.2,1.9,0.8c0.5,3.9,2.3,12.2,8.9,17c0.5,0.3,0.6,1.1,0.2,1.6c-1.9,2.2-6.4,8.3-9.7,19
				c-9.5,31.4,0.5,65.9,25.4,87.1c3.6,3,7.5,5.8,11.9,8.4c0.8,0.5,0.3,1.6-0.5,1.4C514.5,719.5,495.5,712.6,480.9,693.3z
				 M543.4,562.3c-0.2-0.5,0.2-1.1,0.8-1.1c39.6-3.1,40.1,26.4,39.8,32c0,0.3-0.5,0.5-0.6,0.3c-13.3-14.2-30.9-15.1-36.8-15
				c-1.1,0-1.9-0.9-1.9-2C545.3,570.1,544,564.5,543.4,562.3z M584,659.1c0-2.8,2.2-5,5-5c2.8,0,5,2.2,5,5c0,2.7-2.2,5-5,5
				C586.1,664.1,584,661.7,584,659.1z M506.7,366.9c-7.5,12-26.5,36.1-54.5,53.2c-0.9,0.6-2-0.8-1.4-1.7c7.3-9.7,30-40.3,52.9-80.4
				c0.8-1.4,2.8-1.2,3.3,0.3c1.1,3,2.2,8.1,2.7,17C509.8,359.4,508.7,363.5,506.7,366.9z M505,500.7c0,5-4.1,9.1-9.2,9.1
				c-5.2,0-9.1-4.1-9.1-9.1s4.1-9.1,9.1-9.1C500.8,491.6,505,495.7,505,500.7z M329.9,544.8c0-3.4,2.8-6.2,6.2-6.2
				c3.4,0,6.2,2.8,6.2,6.2s-2.8,6.2-6.2,6.2C332.7,551.1,329.9,548.3,329.9,544.8z M341.4,470.1c-1.2,2.8-3.3,5.3-6.1,6.9
				c-5.3,3-15.6,7.8-30.6,11.7c-0.9,0.3-1.7-0.9-0.9-1.7c7.5-6.9,28.6-26.5,41.5-40.6c0.9-0.9,2.5-0.3,2.3,0.9
				C347.7,450.6,346.6,457.4,341.4,470.1z M307.2,576.1c7.5,15-4.4,28.6-19.2,23.9c-5-1.6-5-8.4,0-9.8c0.6-0.2,1.2-0.3,1.9-0.3
				c1.4-0.2,2.2-1.7,1.6-2.8c-4.4-7.6-18.9-26.8-51.2-12.8c-1.2,0.5-1.6,2.2-0.6,3.1c3.9,3.6,11.2,12.3,9.5,23.7
				c-1.6,10-10.3,10.8-16.7,8.7c-6.2-2-7.2-10.8-1.4-13.9c0,0,0.2,0,0.2-0.2c0.5-0.3,0.6-1.1,0.2-1.4c-3.1-2.7-13.6-9.7-27.9-3.7
				c-17.2,7-16.4,30.9-16.4,30.9s-9.4-13.6-28.6-24.5c0,0,6.7-27,32-25.8c0,0,1.6-17.2,18.7-23.1c13.6-4.7,24.2,1.4,28.1,4.2
				c0.9,0.6,2,0.6,2.8-0.2c2.5-2.3,8.7-6.7,20.6-5.8c13.1,1.1,18.1,10.9,18.9,14.5c0.2,0.6,0.8,1.1,1.6,1.1
				C285.6,561.5,299.9,561.5,307.2,576.1z M237.8,658.8c0.6-0.2,1.2-0.5,1.9-0.8c0.8-0.5,0.8,5.5,0.6,5.9
				c-3.4,10.6-15.9,6.2-19.4-1.4c-7-15.5,8.7-27.9,22.3-26.8c18.3,1.6,28.9,17.6,36.5,32.5c9.8,19.2,19.8,36.8,34.3,53.1
				c29.3,32.6,68.2,58.1,111.1,68c16.5,3.9,37.1,7.3,54.5,4.4c-14.8,2.8-30.7,2.8-45.7,1.7c-37.1-2.7-73.4-15.5-103.2-37.9
				c-14.7-11.1-27.8-24.2-39-38.9c-11.7-15.1-19.7-32.3-29.3-48.5c-4.8-8.3-16.2-24.3-27.9-19C229.7,653.2,232.8,660.6,237.8,658.8z
				 M290.2,644.1c0-2.8,2.2-5,5-5c2.7,0,5,2.2,5,5c0,2.8-2.2,5-5,5C292.4,649.1,290.2,646.8,290.2,644.1z M490.9,783.3
				c-98.6,14.5-179.2-69-183.7-90.5c-4.4-21.5,12.2-25.4,12.2-25.4c-2.3-26.1,18.4-26.1,18.4-26.1c0.6,0,4.8-9.2,5.5-10.3
				c1.9-3,3.9-5.9,6.1-8.7c4.1-5,8.7-9.5,14-13.1c10.8-7.2,23.7-10.1,36.5-8.3c9.8,1.6,21.1,6.1,24.3,16.2c2.3,6.9,3,20.6-7.3,20.9
				c-0.5,0-0.9,0-1.2,0c-0.2,0-0.3,0-0.3,0c-0.3,0-0.6,0-0.8,0c-0.2,0-0.3,0-0.5,0c-0.3,0-0.5,0-0.8-0.2c-0.2,0-0.2,0-0.3,0
				c-0.3,0-0.5-0.2-0.8-0.2c-0.2,0-0.2,0-0.3-0.2c-0.2,0-0.5-0.2-0.6-0.2c-0.2,0-0.2-0.2-0.3-0.2c-0.2,0-0.3-0.2-0.5-0.3
				c-0.2,0-0.3-0.2-0.3-0.2c-0.2-0.2-0.3-0.2-0.5-0.3c-0.2,0-0.2-0.2-0.3-0.2c-0.2-0.2-0.3-0.2-0.3-0.3c-0.2,0-0.2-0.2-0.3-0.2
				c-0.2-0.2-0.3-0.2-0.3-0.3c-0.2,0-0.2-0.2-0.3-0.2c-0.2-0.2-0.2-0.2-0.3-0.3l-0.2-0.2c-0.2-0.2-0.2-0.2-0.3-0.3
				c0-0.2-0.2-0.2-0.2-0.3c-0.2-0.2-0.2-0.2-0.3-0.3c0-0.2-0.2-0.2-0.2-0.3c0-0.2-0.2-0.2-0.2-0.3c0-0.2-0.2-0.2-0.2-0.3
				c0-0.2-0.2-0.2-0.2-0.3c0-0.2-0.2-0.2-0.2-0.3c0-0.2-0.2-0.2-0.2-0.3c0-0.2-0.2-0.2-0.2-0.3c0-0.2-0.2-0.2-0.2-0.3v-0.2
				c0-0.2-0.2-0.2-0.2-0.3l0,0c-0.3-1.2,0.3-2.5,1.4-3c0.2,0,0.2-0.2,0.3-0.2s0.2-0.2,0.3-0.2c0.2,0,0.2-0.2,0.3-0.2
				c0.2,0,0.2-0.2,0.3-0.2c0.2,0,0.2-0.2,0.3-0.3c0.2,0,0.2-0.2,0.3-0.2c0.2-0.2,0.2-0.2,0.2-0.3c0-0.2,0.2-0.2,0.2-0.3
				c0-0.2,0.2-0.2,0.2-0.3c0-0.2,0.2-0.2,0.2-0.3c0-0.2,0.2-0.2,0.2-0.3c0-0.2,0.2-0.2,0.2-0.3c0-0.2,0-0.2,0.2-0.3
				c0-0.2,0-0.2,0.2-0.3c0-0.2,0-0.3,0-0.3c0-0.2,0-0.2,0-0.3c0-0.2,0-0.2,0-0.3c0-0.2,0-0.2,0-0.3s0-0.2,0-0.3c0-0.2,0-0.2,0-0.3
				c0-0.2,0-0.3-0.2-0.3c0-0.2,0-0.2,0-0.3c0-0.2-0.2-0.3-0.2-0.3c0-0.2,0-0.2-0.2-0.3c0-0.2-0.2-0.3-0.2-0.3c0-0.2-0.2-0.2-0.2-0.3
				c-0.2-0.2-0.2-0.3-0.3-0.3l-0.2-0.2c-0.2-0.2-0.2-0.2-0.3-0.3c-0.2,0-0.2-0.2-0.2-0.2c-0.2-0.2-0.5-0.3-0.6-0.5
				c-3.4-2.2-7.5-2.5-7.5-2.5c-37.8-6.7-97.9,83.8,13.7,136.6c102.5,48.4,191.5-71.3,313.2-115c121.7-43.7,222.7,11.4,222.7,11.4
				c-1.6,5.9-3.3,11.9-5.2,17.8l0,0C738.6,577.3,589.6,768.6,490.9,783.3z M660.6,645.3c0.3-0.2,0.5-0.3,0.8-0.6
				c1.1-0.8,2.2-1.6,3.1-2.3c0.8-0.6,1.6-1.1,2.3-1.7c0.3-0.2,0.5-0.3,0.8-0.6c0.5-0.3,0.9-0.8,1.6-1.1c0.3-0.3,0.6-0.5,0.9-0.8
				c0.5-0.3,0.9-0.8,1.4-1.1c0.6-0.5,1.1-0.9,1.7-1.2c0.3-0.3,0.8-0.5,1.1-0.8c0.5-0.3,0.9-0.6,1.4-1.1c0.3-0.2,0.6-0.5,0.9-0.6
				c0.5-0.3,0.9-0.6,1.2-0.9c0.3-0.2,0.6-0.5,0.9-0.6c0.5-0.3,0.8-0.6,1.2-0.9c0.3-0.2,0.6-0.5,0.9-0.6c0.5-0.3,0.8-0.6,1.2-0.9
				c0.3-0.2,0.6-0.5,0.9-0.6c0.5-0.3,0.8-0.6,1.2-0.9c0.3-0.2,0.6-0.5,0.9-0.6c0.5-0.3,0.9-0.6,1.4-0.9c0.3-0.2,0.5-0.3,0.8-0.6
				c0.6-0.3,1.1-0.8,1.7-1.1c0.2-0.2,0.3-0.2,0.5-0.3c0.8-0.5,1.4-0.9,2.2-1.4c0.2-0.2,0.3-0.3,0.6-0.3c0.5-0.3,1.1-0.6,1.6-0.9
				c0.3-0.2,0.5-0.3,0.8-0.5c0.5-0.3,0.9-0.6,1.4-0.8c0.3-0.2,0.6-0.3,0.9-0.5c0.5-0.3,0.8-0.5,1.2-0.8c0.3-0.2,0.6-0.3,0.9-0.5
				c0.5-0.2,0.8-0.5,1.2-0.6c0.3-0.2,0.6-0.3,0.9-0.5c0.5-0.2,0.8-0.5,1.2-0.6c0.3-0.2,0.6-0.3,0.9-0.5c0.5-0.2,0.8-0.5,1.2-0.6
				c0.3-0.2,0.6-0.3,0.9-0.5c0.5-0.2,0.8-0.3,1.2-0.6c0.3-0.2,0.6-0.3,0.9-0.5c0.5-0.2,0.9-0.3,1.2-0.6c0.3-0.2,0.6-0.3,0.9-0.3
				c0.5-0.2,0.9-0.3,1.4-0.5c0.3-0.2,0.6-0.2,0.9-0.3c0.5-0.2,1.1-0.3,1.7-0.6c0.2,0,0.5-0.2,0.6-0.2c0.8-0.3,1.6-0.5,2.3-0.8
				c0.2,0,0.3,0,0.5-0.2c0.6-0.2,1.2-0.3,2-0.5c0.3,0,0.6-0.2,0.9-0.2c0.5-0.2,1.1-0.3,1.6-0.3c0.3,0,0.6-0.2,0.9-0.2
				c0.5-0.2,0.9-0.2,1.6-0.3c0.3,0,0.8-0.2,1.1-0.2c0.5,0,0.9-0.2,1.4-0.2c0.3,0,0.8-0.2,1.1-0.2c0.5,0,0.9-0.2,1.4-0.2
				c0.3,0,0.8,0,1.1-0.2c0.5,0,0.9,0,1.6-0.2c0.3,0,0.8,0,1.1,0c0.2,0,0.5,0,0.6,0c0.9,0,1.2,1.4,0.2,1.7c-0.2,0-0.2,0-0.3,0.2
				c-0.3,0.2-0.6,0.2-1.1,0.3c-0.2,0-0.3,0.2-0.5,0.2c-0.3,0.2-0.6,0.3-1.1,0.3c-0.2,0-0.3,0.2-0.6,0.2c-0.5,0.2-0.8,0.3-1.2,0.5
				c-0.2,0-0.3,0.2-0.5,0.2c-0.6,0.2-1.2,0.5-1.9,0.8c-0.2,0-0.3,0.2-0.5,0.2c-0.5,0.2-0.9,0.5-1.6,0.6c-0.3,0.2-0.5,0.2-0.8,0.3
				c-0.5,0.2-0.9,0.5-1.4,0.6c-0.3,0.2-0.5,0.3-0.8,0.3c-0.5,0.3-1.1,0.5-1.7,0.8c-0.2,0.2-0.5,0.2-0.6,0.3
				c-0.8,0.5-1.6,0.8-2.3,1.2c-0.2,0.2-0.3,0.2-0.5,0.3c-0.6,0.3-1.4,0.8-2,1.1c-0.3,0.2-0.6,0.3-0.9,0.5c-0.6,0.3-1.2,0.6-1.9,1.1
				c-0.3,0.2-0.6,0.3-0.9,0.6c-0.6,0.3-1.2,0.8-2,1.2c-0.3,0.2-0.6,0.3-0.9,0.5c-0.9,0.6-2,1.2-3,1.9c-0.2,0-0.3,0.2-0.3,0.3
				c-0.9,0.6-1.9,1.1-2.7,1.7c-0.3,0.2-0.6,0.5-1.1,0.6c-0.8,0.5-1.4,0.9-2.2,1.6c-0.5,0.3-0.8,0.5-1.2,0.8
				c-0.8,0.5-1.6,1.1-2.3,1.7c-0.3,0.3-0.8,0.5-1.1,0.8c-1.1,0.8-2.3,1.7-3.6,2.7c-0.6,0.5-1.2,0.9-2,1.6c-0.3,0.2-0.5,0.3-0.8,0.5
				c-0.5,0.3-0.9,0.6-1.2,0.9c-0.3,0.2-0.6,0.5-0.9,0.6c-0.5,0.3-0.8,0.6-1.2,0.9c-0.6,0.5-1.2,0.9-1.7,1.4
				c-0.3,0.3-0.6,0.5-0.9,0.8c-0.3,0.3-0.8,0.6-1.1,0.8c-0.3,0.3-0.6,0.5-0.9,0.8c-0.3,0.3-0.8,0.5-1.1,0.8
				c-0.3,0.3-0.6,0.5-0.9,0.8c-0.3,0.3-0.8,0.6-1.1,0.8c-0.3,0.3-0.6,0.5-0.9,0.8c-0.3,0.3-0.8,0.6-1.1,0.8
				c-0.3,0.3-0.6,0.5-0.9,0.8c-0.3,0.3-0.8,0.6-1.1,0.8c-0.3,0.3-0.6,0.5-0.9,0.8c-0.3,0.3-0.8,0.5-1.1,0.8
				c-0.3,0.2-0.6,0.5-0.9,0.6c-0.3,0.3-0.8,0.5-1.1,0.8c-0.3,0.2-0.6,0.5-0.9,0.6c-0.5,0.3-0.8,0.5-1.2,0.8
				c-0.3,0.2-0.6,0.5-0.9,0.6c-0.5,0.3-0.8,0.5-1.2,0.8c-0.3,0.2-0.6,0.5-0.9,0.6c-0.5,0.3-0.8,0.5-1.2,0.8
				c-0.3,0.2-0.6,0.5-0.9,0.6c-0.5,0.3-0.8,0.5-1.2,0.8c-0.3,0.2-0.6,0.5-0.9,0.6c-0.5,0.3-0.9,0.5-1.4,0.8
				c-0.3,0.2-0.6,0.3-0.9,0.5c-0.5,0.3-0.9,0.5-1.4,0.8c-0.3,0.2-0.6,0.3-0.8,0.5c-0.6,0.3-1.2,0.6-1.9,0.9c-0.2,0-0.3,0.2-0.5,0.3
				c-0.8,0.3-1.6,0.8-2.3,1.1c-0.3,0.2-0.5,0.2-0.8,0.3c-0.6,0.3-1.1,0.5-1.7,0.8c-0.3,0.2-0.6,0.3-0.9,0.5
				c-0.5,0.2-0.9,0.5-1.4,0.6c-0.3,0.2-0.6,0.3-1.1,0.5s-0.9,0.3-1.4,0.5c-0.3,0.2-0.8,0.3-1.1,0.3c-0.5,0.2-0.9,0.3-1.4,0.5
				c-0.3,0.2-0.8,0.3-1.1,0.3c-0.5,0.2-0.9,0.3-1.4,0.5c-0.3,0.2-0.8,0.2-1.1,0.3c-0.5,0.2-0.9,0.3-1.4,0.3
				c-0.5,0.2-0.8,0.2-1.2,0.3c-0.5,0.2-0.9,0.2-1.4,0.3c-0.5,0.2-0.8,0.2-1.2,0.3c-0.5,0.2-0.9,0.2-1.4,0.3c-0.5,0-0.8,0.2-1.2,0.2
				s-0.9,0.2-1.4,0.2c-0.5,0-0.8,0.2-1.2,0.2s-0.9,0.2-1.4,0.2c-0.5,0-0.8,0.2-1.2,0.2s-0.9,0-1.6,0.2c-0.5,0-0.8,0-1.2,0
				c-0.2,0-0.3,0-0.6,0c-0.9,0-1.2-1.4-0.3-1.7h0.2c0.5-0.2,0.8-0.3,1.2-0.5c0.2,0,0.2,0,0.3-0.2c0.5-0.2,1.1-0.5,1.7-0.6
				c0.2,0,0.3-0.2,0.3-0.2c0.5-0.2,1.1-0.5,1.6-0.6c0.2,0,0.3-0.2,0.5-0.2c0.6-0.3,1.2-0.6,2-0.9c0.2,0,0.3-0.2,0.5-0.2
				c0.6-0.3,1.2-0.6,1.9-0.9c0.2-0.2,0.3-0.2,0.5-0.2c0.8-0.3,1.6-0.8,2.3-1.1c0.2,0,0.3-0.2,0.5-0.2c0.6-0.3,1.4-0.6,2-1.1
				c0.2-0.2,0.5-0.2,0.6-0.3c0.8-0.5,1.7-0.9,2.5-1.2c0.2,0,0.3-0.2,0.5-0.3c0.8-0.5,1.6-0.8,2.3-1.2c0.2-0.2,0.5-0.3,0.6-0.3
				c0.9-0.5,1.9-1.1,2.8-1.6c0.2-0.2,0.3-0.2,0.5-0.3c0.8-0.5,1.7-0.9,2.5-1.4c0.3-0.2,0.5-0.3,0.8-0.5c0.9-0.6,2-1.2,3-1.7
				c0.2,0,0.2-0.2,0.3-0.2c0.9-0.6,1.9-1.1,2.8-1.7c0.3-0.2,0.5-0.3,0.8-0.5c1.1-0.6,2-1.4,3.1-2l0.2-0.2
				C658.6,646.6,659.5,646,660.6,645.3z M658.4,596.8c0-3.4,2.8-6.2,6.2-6.2c3.4,0,6.2,2.8,6.2,6.2c0,3.4-2.8,6.2-6.2,6.2
				C661.2,603.1,658.4,600.2,658.4,596.8z M736.6,591.5c-2.8,0-5-2.2-5-5s2.2-5,5-5c2.8,0,5,2.2,5,5S739.2,591.5,736.6,591.5z
				 M741.9,616.2c0.9-0.3,2-0.6,3-1.1c0.2,0,0.5-0.2,0.6-0.2c0.9-0.3,1.7-0.6,2.7-0.9c0.2,0,0.3-0.2,0.6-0.2
				c1.1-0.3,2.2-0.6,3.1-0.9c0.3,0,0.5-0.2,0.8-0.2c0.9-0.3,1.9-0.5,2.8-0.8c0.2,0,0.3-0.2,0.6-0.2c1.1-0.3,2.2-0.6,3.4-0.8
				c0.3,0,0.6-0.2,0.8-0.2c0.9-0.2,2-0.5,3.1-0.6c0.2,0,0.3,0,0.5-0.2c1.1-0.3,2.3-0.5,3.6-0.6c0.3,0,0.6-0.2,0.9-0.2
				c1.1-0.2,2.2-0.3,3.3-0.5c0.2,0,0.3,0,0.5,0c1.2-0.2,2.5-0.3,3.7-0.5c0.3,0,0.6,0,0.9-0.2c1.1-0.2,2.3-0.3,3.6-0.3
				c0.2,0,0.3,0,0.3,0c1.2-0.2,2.5-0.2,3.9-0.3c0.3,0,0.6,0,0.9,0c1.2,0,2.5-0.2,3.7-0.2c0.2,0,0.2,0,0.3,0c1.4,0,2.7,0,4.1,0
				c0.3,0,0.6,0,0.9,0c1.4,0,2.7,0,4.1,0.2h0.2c1.4,0,2.8,0.2,4.2,0.2c0.3,0,0.6,0,1.1,0c1.4,0.2,2.8,0.2,4.2,0.3c0,0,0,0,0.2,0
				c1.4,0.2,2.8,0.3,4.2,0.5c0.3,0,0.8,0.2,1.1,0.2c1.4,0.2,3,0.5,4.4,0.6c0.2,0,0.2,0,0.3,0c1.4,0.3,2.8,0.5,4.2,0.8
				c0.2,0,0.5,0.2,0.6,0.2c0.9,0.3,0.8,1.7-0.2,1.7c0,0,0,0-0.2,0c-0.5,0-1.1,0-1.6,0c-0.2,0-0.3,0-0.5,0c-0.5,0-0.9,0-1.4,0
				c-0.2,0-0.3,0-0.5,0c-0.6,0-1.2,0-1.9,0c-0.2,0-0.3,0-0.5,0c-0.5,0-1.1,0-1.7,0c-0.2,0-0.3,0-0.5,0c-0.6,0-1.4,0-2.2,0
				c-0.2,0-0.3,0-0.5,0c-0.6,0-1.2,0-1.9,0c-0.2,0-0.3,0-0.5,0c-0.8,0-1.6,0-2.3,0.2c-0.2,0-0.3,0-0.5,0c-0.6,0-1.4,0-2.2,0.2
				c-0.2,0-0.5,0-0.6,0c-0.8,0-1.7,0.2-2.7,0.2c-0.2,0-0.3,0-0.5,0c-0.8,0-1.6,0.2-2.3,0.2c-0.2,0-0.5,0-0.6,0
				c-0.9,0-1.9,0.2-2.8,0.2c-0.2,0-0.3,0-0.5,0c-0.8,0-1.7,0.2-2.5,0.3c-0.3,0-0.5,0-0.8,0c-0.9,0.2-2,0.2-3,0.3c-0.2,0-0.2,0-0.3,0
				c-0.9,0.2-1.9,0.2-2.8,0.3c-0.3,0-0.5,0-0.8,0.2c-1.1,0.2-2.2,0.3-3.1,0.5h-0.2c-0.9,0.2-2,0.3-3.1,0.5c-0.3,0-0.6,0.2-0.8,0.2
				c-1.1,0.2-2.2,0.3-3.4,0.5c0,0,0,0-0.2,0c-1.1,0.2-2.2,0.3-3.3,0.6c-0.3,0-0.6,0.2-0.9,0.2c-1.1,0.2-2.2,0.5-3.4,0.6h-0.2
				c-1.2,0.2-2.3,0.5-3.6,0.6c-0.3,0-0.6,0.2-0.9,0.2c-1.1,0.2-2.3,0.5-3.4,0.8h-0.2c-1.2,0.3-2.5,0.5-3.6,0.8
				c-0.3,0-0.6,0.2-0.9,0.2c-1.1,0.3-2.2,0.5-3.4,0.8c-0.2,0-0.3,0-0.5,0.2c-1.2,0.3-2.5,0.6-3.7,0.9c-0.3,0.2-0.6,0.2-0.9,0.3
				c-1.1,0.3-2.2,0.6-3.4,0.9c-0.2,0-0.3,0.2-0.5,0.2c-1.2,0.3-2.5,0.8-3.7,1.1c-0.3,0.2-0.6,0.2-0.9,0.3c-1.1,0.3-2.2,0.6-3.3,1.1
				c-0.2,0-0.5,0.2-0.6,0.2c-1.2,0.5-2.5,0.8-3.9,1.2c-0.3,0.2-0.6,0.2-0.9,0.3c-1.1,0.3-2.2,0.8-3.3,1.1c-0.3,0.2-0.5,0.2-0.8,0.3
				c-1.2,0.5-2.7,0.9-3.9,1.4c-0.3,0.2-0.6,0.3-0.9,0.3c-1.1,0.5-2.2,0.9-3.4,1.2c-0.3,0.2-0.5,0.2-0.8,0.3
				c-1.2,0.5-2.7,1.1-3.9,1.6c-0.2,0-0.2,0.2-0.3,0.2c-0.9,0.5-1.7-0.9-0.8-1.6c0,0,0.2,0,0.2-0.2c0.5-0.3,0.8-0.5,1.2-0.8
				c0.2,0,0.3-0.2,0.3-0.2c0.5-0.3,1.1-0.6,1.6-0.9c0.2,0,0.2-0.2,0.3-0.2c0.5-0.3,0.9-0.6,1.6-0.9c0.2-0.2,0.3-0.2,0.5-0.3
				c0.6-0.3,1.2-0.6,1.9-1.1c0.2,0,0.2-0.2,0.3-0.2c0.6-0.3,1.1-0.6,1.7-0.9c0.2-0.2,0.3-0.2,0.5-0.3c0.6-0.3,1.4-0.8,2-1.1
				c0.2,0,0.3-0.2,0.5-0.2c0.6-0.3,1.2-0.6,1.9-0.9c0.2-0.2,0.3-0.2,0.5-0.3c0.8-0.3,1.6-0.8,2.3-1.1c0.2,0,0.3-0.2,0.5-0.2
				c0.6-0.3,1.4-0.6,2.2-0.9c0.2-0.2,0.3-0.2,0.6-0.3c0.8-0.3,1.7-0.8,2.5-1.1c0.2-0.2,0.3-0.2,0.6-0.3c0.8-0.3,1.6-0.6,2.3-0.9
				c0.2-0.2,0.3-0.2,0.6-0.3c0.9-0.3,1.9-0.8,2.8-1.1c0.2-0.2,0.5-0.2,0.6-0.3c0.8-0.3,1.7-0.6,2.5-0.9
				C741.6,616.2,741.7,616.2,741.9,616.2z M917,606.2c0-4.5,3.6-8.1,8.1-8.1s8.1,3.6,8.1,8.1s-3.6,8.1-8.1,8.1
				C920.6,614.1,917,610.5,917,606.2z M877.7,554.5c-2.2-0.8-4.1-2-5.6-3.9l-18.4-20.9c-1.1-1.2-2.3-2.2-3.9-2.8L806,508.5
				c-1.2-0.5-2.3,1.1-1.2,2l35.7,34.3c1.1,1.1,2.2,2.5,2.8,3.9l9.1,19.5c0.8,1.9,2.2,3.4,3.7,4.5l32.9,23.7c1.1,0.8,0.2,2.5-1.1,2
				l-48.7-18.4c-2-0.8-3.7-2.2-5-4.1l-13-20.6c-1.2-2-3.1-3.6-5.3-4.5l-37.9-16.5c-1.4-0.6-2.8,0.8-2.2,2.2l17.5,37.1
				c0.8,1.6-0.9,3.1-2.5,2.2l-38.7-23.6l-13.1-22.6c-1.2-2.2-3.1-3.9-5.5-5.2l-51.3-25.8c-1.2-0.6-2.7,0.6-2,1.9l7.5,19.8l-5.2,20.1
				l17.8,34.3c0.5,1.1-0.6,2.2-1.6,1.6l-34-21.1l-10.9-33.9L627.3,506l-28.9-55.2c-0.9-1.7-3.3-1.9-4.4-0.5l-22.3,26.8
				c-1.1,1.2-3.1,0.5-3-1.2l1.7-41c0.2-3.9-1.1-7.6-3.4-10.6l-20-26.1c-2.7-3.6-3.9-8.1-3.1-12.5c4.8-27.5,26.8-78.5,22.6-95.7
				c-4.7-18.7-7.8-36.5-7.8-36.5c-0.9-2.2-2.8-3.7-5.2-4.2c-0.2,0-0.3,0-0.5-0.2c-12.5-2.7-25.3-2.7-37.8-0.2
				c-0.3,0-0.8,0.2-1.1,0.2c-2.2,0.5-4.1,2-5,4.1c-3,7.2-12.2,25.1-33.9,42c0,0-16.7,33.9-24,50.1c-0.5,0.9-1.7,0.6-1.7-0.3
				c0-7.2,0.2-22.5,2.2-34.2c0.2-1.2-1.4-2-2.2-0.9c-7,8.7-24.7,32-37.9,62.9c-0.8,1.9,0.8,3.9,2.8,3.4c6.1-1.2,17.2-3.7,27.3-8
				c1.7-0.8,3.3,1.1,2.5,2.8c-6.1,11.4-25.4,39.8-72.6,59.5c-0.9,0.5-1.9-0.8-1.1-1.6c5-5.3,14.7-15.9,21.7-27.8
				c0.6-0.9-0.2-2.2-1.2-2l-13.3,1.1c-2,0.2-3.3-1.9-2.5-3.6l9.5-19.5c0.5-0.8-0.6-1.6-1.2-0.9l-31.2,29l-67.6,47.6
				c-2.2,1.6-3.6,3.9-3.9,6.6l-0.6,4.8c-0.3,3.1-2.2,5.9-5,7.3l-128,64.9c-0.6-2.5-1.9-4.8-3.7-6.7l-12.2-12.2l121.7-58.8
				c2.5-1.2,4.1-3.6,4.1-6.4v-4.4c0-2.3,1.2-4.5,3.1-5.9l67.9-45.6l7.3-17.8c0.9-2,2.2-3.9,4.1-5.3l27.6-20.6l6.9-11.9
				c1.1-1.9,2.7-3.4,4.4-4.7c5.9-3.7,20.6-13.6,36.4-27.9c19.4-17.8,54.8-66.8,74.4-80.8c1.7-1.2,3.6-2,5.6-2.5
				c5.9-1.1,20.6-3.4,39.3-3.4s33.4,2.3,39.3,3.4c2,0.3,4.1,1.2,5.6,2.5c19.5,14,55.1,63.1,74.4,80.8c15.6,14.5,30.4,24.2,36.4,27.9
				c1.9,1.1,3.3,2.8,4.4,4.7l6.9,11.9l27.6,20.6c1.9,1.4,3.3,3.1,4.1,5.3l7.3,17.8l67.9,45.6c2,1.2,3.1,3.6,3.1,5.9v4.4
				c0,2.7,1.6,5.2,4.1,6.4l130,62.7l-8.3,8.3c-2.8,2.8-4.2,6.4-4.2,10c0,3.6,1.4,7.3,4.2,10l25.8,25.8c-0.2,2.8-0.5,5.8-0.8,8.6l0,0
				L877.7,554.5z M252.3,309c11.5,1.7,18.4,9.5,22,20.3c0.2,0.6,0.5,1.2,0.9,1.6c0.3,0.3,0.8,0.3,1.2,0.3
				c9.1,0.6,18.3,5.2,22.2,13.9c0.2,0.5,0.6,0.8,1.2,0.8c15.9-0.2,20.6,7,22.6,10.6c0.5,0.8-0.2,1.9-1.1,1.9h-148
				c-0.8,0-1.4-0.8-1.2-1.7c1.1-3.4,5.3-10.9,21.4-10.9c0.6,0,1.2-0.5,1.2-1.1c0.6-4.4,4.2-19.8,24.7-18.3c0.6,0,1.1-0.3,1.2-0.8
				c0.8-2.2,3.7-7.2,3.9-7.5C232.2,310.7,241.9,307.5,252.3,309z M249.8,231.6c23.4-22,49-41.2,76.2-57.1c8.6,9.7,9.8,20.9,9.8,20.9
				C368.1,186.5,380,211,380,211c22.9-8.3,32.3,8.9,32.3,8.9c18.7-1.6,23.9,11.7,23.9,11.7H249.8z M782.2,327.9
				c-60.6,0-109.7-49.2-109.7-109.7c0-27,9.8-51.8,26.1-71c52.3,21.1,100.2,52.6,141.1,93.6c12.2,12.2,23.4,24.8,33.9,38.1
				C854,308.5,820.2,327.9,782.2,327.9z M882.8,398.9c0.6,0,1.2-0.3,1.4-0.9c0.8-2.3,4.2-8.1,4.4-8.4c8.3-8.3,19-11.9,30.7-10.1
				c6.7,0.9,12,3.7,16.1,8l0,0c5.9,15.5,11.1,31.1,15.1,47.1H831.2c-0.9,0-1.7-0.9-1.4-1.9c1.2-3.7,5.9-12.2,23.9-12.2
				c0.6,0,1.4-0.5,1.4-1.2C855.8,414.5,859.9,397.2,882.8,398.9z M891.7,259.2c33.9,42.3,59.6,89.7,76.5,141.1
				c3.3,10,6.2,20.1,8.7,30.3c4.1,16.2,7.2,32.8,9.5,49.5l-9.8,9.8c-2.2-19-5.6-38.1-10.3-56.7c-2.5-10-5.3-20-8.6-29.7
				c-16.4-50.1-41.5-96.5-74.6-137.8C836.8,208,776.4,162.5,708.3,134.2c-38.2-15.8-78-26.1-118.9-30.6l9.8-9.8
				c38.9,5.2,76.8,15.3,113.3,30.4C782.3,153.4,844.3,200.1,891.7,259.2z M539.9,14.5l27.2,27.2l4.8,4.8l0.5,0.5l-5.3,5.3
				l-10.3,10.3l-5.3,5.3l-11.5,11.5l-11.5-11.5l-5.3-5.3l-10.3-10.3l-5.3-5.3l0.5-0.5l4.8-4.8L539.9,14.5z M502,52.4L517.6,68
				l5.3,5.3l17,17l17-17L578,52.3l5.3,5.3l16.1,16.1l-15.6,15.6l-5.3,5.3l-38.5,38.7l-38.4-38.4l-5.3-5.3L480.6,74l16.1-16.1
				L502,52.4z M131.8,349.8c25.4-54.3,61-102.5,105.8-143c22-20,46.2-37.8,71.6-53.1l3.7-2.2l0,0c51.5-30.1,108.6-49.5,167.6-57.3
				l9.8,9.8c-61.6,6.9-121.1,26.8-174.5,58.5l0,0l-1.1,0.6c-25,14.8-48.5,32.3-69.9,51.8c-43.5,39.5-78.3,86.5-103.2,139.5
				c-20.1,43.1-33.1,88.5-38.4,135.6l-9.8-9.8C99.5,435,112.3,391.3,131.8,349.8z M46.9,572.5l-0.5-0.5l-4.8-4.8L14.5,540l27.2-27.2
				l4.8-4.8l0.5-0.5l5.3,5.3l10.3,10.3l5.3,5.3L79.4,540l-11.5,11.5l-5.3,5.3l-10.3,10.3L46.9,572.5z M200.3,836.5
				c-0.3-0.3-0.6-0.6-0.9-0.9c-35.9-41.4-63.7-88.3-82.4-139.5c-1.4-3.7-2.7-7.5-3.9-11.1c-6.1-17.9-10.9-36.4-14.7-54.8h-0.2
				l-2.3-13c-0.8-4.2-1.4-8.6-2-12.8c-0.2-1.6-0.5-3-0.6-4.5l9.8-9.8c0.5,4.4,0.9,8.6,1.6,12.8c0.6,4.2,1.2,8.3,1.9,12.5l0.6,3.9
				l0,0c3.7,20.9,9.2,41.8,16.1,62.3c1.2,3.6,2.5,7.2,3.9,10.9c18.4,49.9,45.4,95.8,80.5,136.2c0.2,0.2,0.3,0.3,0.5,0.6
				c72.4,83.2,172.8,135.5,280.9,148.1l-9.8,9.8C372,972.5,272.6,919.4,200.3,836.5z M572.4,1033l-0.5,0.5l-4.8,4.8l-27.2,27.2
				l-27.2-27.2l-4.8-4.8l-0.5-0.5l5.3-5.3l10.3-10.3l5.3-5.3l11.5-11.5l11.5,11.5l5.3,5.3l10.3,10.3L572.4,1033z M973.5,663
				c-3.1,11.1-6.7,22.2-10.6,32.8c-2.2,6.1-4.5,12.2-7.2,18.4l-0.2,0.5c-0.9,2.2-1.9,4.4-2.8,6.6c-2.5,5.6-5.2,11.4-8,17l-0.5,0.9
				c-9.4,18.9-20,37.1-31.7,54.5c-52.3,76.9-125.8,135-212.4,168.1l-2.7,1.1l0,0c-6.6,2.5-13.1,4.7-19.5,6.9
				c-25.3,8.1-51.2,14-77.6,17.5l-9.8-9.8c28.6-3.3,56.7-9.4,84-18.1c6.7-2.2,13.7-4.7,20.9-7.3l0,0l0.8-0.3
				c84.6-32.2,156.2-89,207.3-164c11.4-16.9,21.8-34.6,30.9-53.1l0.5-0.9c2.7-5.5,5.3-11.1,7.6-16.5c0.9-2,1.9-4.2,2.7-6.2l0.3-0.6
				c2.7-6.2,5-12.2,7-17.9c3.9-10.5,7.3-21.2,10.3-32c6.4-22.8,10.9-46.2,13.6-69.9l9.8,9.8C983.6,621.3,979.4,642.4,973.5,663z
				 M1038.4,567.2l-4.8,4.8l-0.5,0.5l-5.3-5.3l-10.3-10.3l-5.3-5.3l-11.5-11.5l11.5-11.5l5.3-5.3l10.3-10.3l5.3-5.3l0.5,0.5l4.8,4.8
				l27.2,27.2L1038.4,567.2z"/>
			<rect x="999" y="494.1" transform="matrix(0.7074 -0.7068 0.7068 0.7074 -60.1688 858.0452)" width="14.5" height="15.1"/>
			<rect x="998.8" y="570.9" transform="matrix(0.7071 -0.7071 0.7071 0.7071 -114.0374 880.9158)" width="15.1" height="14.5"/>
			<polygon points="957.4,540 990.5,573.1 1001.1,562.3 978.8,540 1001.1,517.7 990.5,506.9 			"/>
			<polygon points="1017.4,533.9 1011.3,540 1017.4,546.1 1023.4,540 			"/>
			<polygon points="1033,518.3 1022.7,528.5 1034.2,540 1022.7,551.5 1033,561.8 1054.8,540 			"/>
			<path class="st0" d="M1011.9,517.7l15.6-15.6l-5.3-5.3l-16.1-16.1l-15.6,15.6l-5.3,5.3L946.7,540l38.4,38.4l5.3,5.3l15.6,15.6
				l16.1-16.1l5.3-5.3l-21.1-21.1L989.6,540l17-17L1011.9,517.7z M1006.1,491.3l10.8,10.8l-10.3,10.3l-10.8-10.8L1006.1,491.3z
				 M1006.4,567.8l10.3,10.3l-10.8,10.8l-10.3-10.3L1006.4,567.8z M978.8,540l22.3,22.3l-10.8,10.8L957.4,540l33.1-33.1l10.8,10.8
				L978.8,540z"/>
			<path class="st0" d="M1038.4,512.8l-4.8-4.8l-0.5-0.5l-5.3,5.3l-10.3,10.3l-5.3,5.3l-11.5,11.5l11.5,11.5l5.3,5.3l10.3,10.3
				l5.3,5.3l0.5-0.5l4.8-4.8l27.2-27.2L1038.4,512.8z M1017.4,546.1l-6.1-6.1l6.1-6.1l6.1,6.1L1017.4,546.1z M1033,561.8l-10.3-10.3
				l11.5-11.5l-11.5-11.5l10.3-10.3l21.8,21.7L1033,561.8z"/>
			<rect x="66.2" y="570.6" transform="matrix(0.7074 -0.7068 0.7068 0.7074 -387.1434 221.1118)" width="14.5" height="15.1"/>
			<rect x="65.9" y="494.6" transform="matrix(0.7071 -0.7071 0.7071 0.7071 -333.3458 198.979)" width="15.1" height="14.5"/>
			<polygon points="122.5,540 89.4,506.9 78.8,517.7 101.1,540 78.8,562.3 89.4,573.1 			"/>
			<polygon points="62.5,546.1 68.6,540 62.5,533.9 56.4,540 			"/>
			<polygon points="45.7,540 57.2,528.5 46.9,518.2 25.1,540 46.9,561.7 57.2,551.5 			"/>
			<path class="st0" d="M68,562.3l-15.6,15.6l5.3,5.3l16.1,16.1l15.6-15.6l5.3-5.3l38.4-38.4l-38.4-38.4l-5.3-5.3l-15.6-15.6
				l-16.1,15.9l-5.3,5.3L73.5,523l17,17l-17,17L68,562.3z M73.8,588.7L63,577.9l10.3-10.3l10.8,10.8L73.8,588.7z M73.5,512.2
				l-10.3-10.3l10.8-10.8l10.3,10.3L73.5,512.2z M101.1,540l-22.3-22.3l10.8-10.8l33.1,33.1l-33.1,33.1l-10.8-10.8L101.1,540z"/>
			<path class="st0" d="M62.5,556.9l5.3-5.3L79.4,540l-11.5-11.5l-5.3-5.3l-10.3-10.3l-5.3-5.3l-0.5,0.5l-4.8,4.8L14.5,540
				l27.2,27.2l4.8,4.8l0.5,0.5l5.3-5.3L62.5,556.9z M62.5,533.9l6.1,6.1l-6.1,6.1l-6.1-6.1L62.5,533.9z M46.9,561.7L25.1,540
				l21.8-21.8l10.3,10.3L45.7,540l11.5,11.5L46.9,561.7z"/>
		</g>
		<path d="M578.2,259.9l8.9,3.7c0.3,0.2,0.6,0.3,0.8,0.6l79.4,95.7c0.3,0.5,0.9,0.8,1.6,0.8h16.5c0.8,0,1.4,0.5,1.7,1.1l14,25.3
			c0.2,0.2,0.2,0.3,0.3,0.5l49.2,46.8c0.3,0.3,0.9,0.6,1.4,0.6h8c0.5,0,0.8,0.2,1.1,0.3l22.9,16.1c1.7,1.2,0.6,4.1-1.6,3.6
			l-70.2-13.6c-0.5-0.2-0.9-0.3-1.2-0.8l-25.6-35.4c-0.3-0.3-0.6-0.6-1.1-0.8l-16.4-5c-0.6-0.2-1.1-0.6-1.2-1.2l-5-13.4
			c-0.2-0.3-0.3-0.6-0.6-0.9L625,354.9c-1.7-1.2-3.9,0.5-3.1,2.3l32.6,73.2c0.8,1.7-1.1,3.4-2.7,2.7l-35.3-17.3
			c-0.6-0.3-1.1-0.9-1.1-1.7l-2.2-30.3c0-0.3-0.2-0.6-0.3-0.9l-34.3-54.2c-0.3-0.5-0.5-1.2-0.2-1.7l11.4-32"/>
		<path d="M665.7,414.1l6.7,22.5c0.2,0.5,0.3,0.8,0.8,0.9l28.4,17.8c1.7,1.1,3.4-1.1,2.2-2.5l-35.3-40.3
			C667.5,411.1,665.3,412.3,665.7,414.1z"/>
	</g>
</g>
</svg>
